<?xml version="1.0" encoding="UTF-8" standalone="no"?>
<!-- Created with Inkscape (http://www.inkscape.org/) -->

<svg
   xmlns:dc="http://purl.org/dc/elements/1.1/"
   xmlns:cc="http://creativecommons.org/ns#"
   xmlns:rdf="http://www.w3.org/1999/02/22-rdf-syntax-ns#"
   xmlns:svg="http://www.w3.org/2000/svg"
   xmlns="http://www.w3.org/2000/svg"
   xmlns:sodipodi="http://sodipodi.sourceforge.net/DTD/sodipodi-0.dtd"
   xmlns:inkscape="http://www.inkscape.org/namespaces/inkscape"
   width="200"
   height="200"
   viewBox="0 0 200 200"
   id="svg2"
   version="1.1"
   inkscape:version="0.91 r13725"
   sodipodi:docname="apple.svg">
  <defs
     id="defs4" />
  <sodipodi:namedview
     id="base"
     pagecolor="#ffffff"
     bordercolor="#666666"
     borderopacity="1.0"
     inkscape:pageopacity="0.0"
     inkscape:pageshadow="2"
     inkscape:zoom="2.8"
     inkscape:cx="56.142411"
     inkscape:cy="119.40528"
     inkscape:document-units="px"
     inkscape:current-layer="layer1"
     showgrid="false"
     units="px"
     inkscape:window-width="1598"
     inkscape:window-height="898"
     inkscape:window-x="0"
     inkscape:window-y="0"
     inkscape:window-maximized="0" />
  <metadata
     id="metadata7">
    <rdf:RDF>
      <cc:Work
         rdf:about="">
        <dc:format>image/svg+xml</dc:format>
        <dc:type
           rdf:resource="http://purl.org/dc/dcmitype/StillImage" />
        <dc:title></dc:title>
      </cc:Work>
    </rdf:RDF>
  </metadata>
  <g
     inkscape:label="Layer 1"
     inkscape:groupmode="layer"
     id="layer1"
     transform="translate(0,-852.36216)">
    <path
       style="fill:#aa0000;fill-opacity:1;fill-rule:evenodd;stroke:none;stroke-width:5;stroke-linecap:butt;stroke-linejoin:miter;stroke-miterlimit:4;stroke-dasharray:none;stroke-opacity:1"
       d="m 106.77728,916.44691 c -19.536417,3.25986 -28.250239,-7.68724 -39.338332,-0.93662 -48.384774,29.45735 -33.905232,114.68441 1.404939,125.03981 11.54982,3.3872 21.130033,-6.3808 35.591813,-6.0882 14.98947,0.3033 22.3464,18.7947 39.33837,7.4931 39.49913,-26.2716 43.64195,-96.20774 7.02469,-131.59619 -11.78659,-11.39105 -20.00248,2.08026 -44.02148,6.0881 z"
       id="path4686-4"
       inkscape:connector-curvature="0"
       sodipodi:nodetypes="sssssss" />
    <path
       style="fill:none;fill-rule:evenodd;stroke:#ff0000;stroke-width:4.61164951;stroke-linecap:butt;stroke-linejoin:miter;stroke-miterlimit:4;stroke-dasharray:none;stroke-opacity:1"
       d="m 95.654855,905.94583 c -19.536414,3.25986 -28.250239,-7.68722 -39.338338,-0.93662 -48.3847697,29.45734 -33.905228,114.68449 1.404942,125.03979 11.549822,3.3872 21.130038,-6.3807 35.591823,-6.0881 14.989468,0.3033 22.346388,18.7946 39.338358,7.493 39.49913,-26.2716 43.64195,-96.20772 7.02469,-131.59615 -11.7866,-11.39106 -20.00249,2.08025 -44.021475,6.08808 z"
       id="path4686"
       inkscape:connector-curvature="0"
       sodipodi:nodetypes="sssssss" />
    <path
       style="fill:#ffffff;fill-rule:evenodd;stroke:none;stroke-width:1px;stroke-linecap:butt;stroke-linejoin:miter;stroke-opacity:1"
       d="m 53.197069,959.93408 c -3.704847,-26.05736 13.33958,-33.44898 32.940356,-37.8814 -21.778484,15.31428 -26.189616,21.04771 -32.940356,37.8814 z"
       id="path4712"
       inkscape:connector-curvature="0"
       sodipodi:nodetypes="ccc" />
    <g
       id="g4731"
       transform="matrix(0.74414744,0,0,0.74414744,159.33599,192.74085)">
      <path
         sodipodi:nodetypes="ccsc"
         inkscape:connector-curvature="0"
         id="path4714"
         d="m -76.785714,944.50502 c 18.661844,-14.18712 36.487595,-28.97145 48.571428,-47.85715 -3.219502,10.65042 2.170723,27.14474 -8.928571,35 -13.665301,9.67129 -26.932807,7.48942 -39.642857,12.85715 z"
         style="fill:#008000;fill-rule:evenodd;stroke:none;stroke-width:1px;stroke-linecap:butt;stroke-linejoin:miter;stroke-opacity:1" />
      <path
         sodipodi:nodetypes="ccsc"
         inkscape:connector-curvature="0"
         id="path4714-6"
         d="m -76.852056,944.70346 c 18.661843,-14.18712 36.487594,-28.97145 48.571427,-47.85715 -13.933788,2.79328 -19.257848,8.21617 -30.357142,16.07143 -13.665301,9.67129 -12.647093,21.06085 -18.214285,31.78572 z"
         style="fill:#00ff00;fill-rule:evenodd;stroke:none;stroke-width:1px;stroke-linecap:butt;stroke-linejoin:miter;stroke-opacity:1" />
    </g>
  </g>
</svg>
