<?xml version="1.0" encoding="UTF-8" standalone="no"?>
<!-- Created with Inkscape (http://www.inkscape.org/) -->

<svg
   xmlns:dc="http://purl.org/dc/elements/1.1/"
   xmlns:cc="http://creativecommons.org/ns#"
   xmlns:rdf="http://www.w3.org/1999/02/22-rdf-syntax-ns#"
   xmlns:svg="http://www.w3.org/2000/svg"
   xmlns="http://www.w3.org/2000/svg"
   xmlns:sodipodi="http://sodipodi.sourceforge.net/DTD/sodipodi-0.dtd"
   xmlns:inkscape="http://www.inkscape.org/namespaces/inkscape"
   width="200"
   height="200"
   viewBox="0 0 200 200"
   id="svg2"
   version="1.1"
   inkscape:version="0.91 r13725"
   sodipodi:docname="breadfruit.svg">
  <defs
     id="defs4" />
  <sodipodi:namedview
     id="base"
     pagecolor="#ffffff"
     bordercolor="#666666"
     borderopacity="1.0"
     inkscape:pageopacity="0.0"
     inkscape:pageshadow="2"
     inkscape:zoom="3.959798"
     inkscape:cx="51.936618"
     inkscape:cy="101.96663"
     inkscape:document-units="px"
     inkscape:current-layer="layer1"
     showgrid="false"
     units="px"
     inkscape:window-width="1598"
     inkscape:window-height="898"
     inkscape:window-x="0"
     inkscape:window-y="0"
     inkscape:window-maximized="0" />
  <metadata
     id="metadata7">
    <rdf:RDF>
      <cc:Work
         rdf:about="">
        <dc:format>image/svg+xml</dc:format>
        <dc:type
           rdf:resource="http://purl.org/dc/dcmitype/StillImage" />
        <dc:title></dc:title>
      </cc:Work>
    </rdf:RDF>
  </metadata>
  <g
     inkscape:label="Layer 1"
     inkscape:groupmode="layer"
     id="layer1"
     transform="translate(0,-852.36216)">
    <path
       style="opacity:1;fill:#008000;fill-opacity:1;fill-rule:nonzero;stroke:none;stroke-width:5;stroke-linecap:square;stroke-linejoin:round;stroke-miterlimit:4;stroke-dasharray:none;stroke-opacity:1"
       d="m 122.56441,887.37108 c 3.96614,1.25858 7.85624,10.68045 11.38673,12.75551 3.53049,2.07508 9.63218,0.89827 12.67143,3.67612 3.03925,2.77788 3.01606,9.51037 5.50793,12.87727 2.49187,3.36663 10.43192,2.48979 12.32025,6.33149 1.88861,3.84202 -2.2742,12.40256 -1.04499,16.60546 1.2295,4.20321 7.65259,4.88996 8.16683,9.34086 0.51393,4.45023 -4.881,12.66398 -5.1382,17.24803 -0.25718,4.58438 3.79756,10.7019 2.71335,15.30554 -1.0842,4.60408 -7.25605,7.47634 -9.04356,11.57455 -1.78752,4.09821 0.54301,13.85969 -1.85014,17.38769 -2.39315,3.5279 -9.50938,0.8229 -12.40991,3.7151 -2.90023,2.8925 -3.46161,9.4311 -6.77124,11.6232 -3.30965,2.1924 -9.36726,0.039 -12.98805,1.4654 -3.62079,1.4272 -4.27792,7.5064 -8.11189,8.1032 -3.83396,0.5968 -10.84478,-4.289 -14.79367,-4.5874 -3.948892,-0.2977 -7.604941,5.8244 -11.571079,4.5657 -3.966136,-1.2582 -8.054378,-9.8387 -11.584866,-11.914 -3.530774,-2.0753 -11.412845,1.7016 -14.452096,-1.0765 -3.039257,-2.7777 -0.755972,-11.3784 -3.72727,-15.4766 -2.905216,-4.0072 -10.332848,-2.9105 -12.221377,-6.7526 -1.888561,-3.84169 2.175243,-11.9815 0.94592,-16.18472 -1.229302,-4.20288 -6.992986,-6.03737 -7.507097,-10.48751 -0.514083,-4.45062 4.221468,-11.51728 4.478549,-16.10166 0.257067,-4.58373 -3.435068,-10.58641 -2.350863,-15.19042 1.084202,-4.60336 6.893444,-7.59081 8.681072,-11.68933 1.787634,-4.09853 -0.675805,-11.64122 1.717199,-15.16916 2.393031,-3.52809 9.642445,-3.04109 12.542762,-5.93371 2.90035,-2.89252 2.671644,-11.03805 5.981286,-13.23029 3.309553,-2.19227 10.157419,1.56871 13.77821,0.14167 3.620788,-1.42701 3.850152,-8.99834 7.684121,-9.59507 3.833969,-0.59674 11.272259,5.78102 15.221439,6.0795 3.9489,0.29839 7.80308,-6.66596 11.76922,-5.40739 z"
       id="path5312-8"
       inkscape:connector-curvature="0"
       sodipodi:nodetypes="sssssssssssssssssscasssssssssssss" />
    <path
       style="opacity:1;fill:none;fill-opacity:1;fill-rule:nonzero;stroke:#00db00;stroke-width:5;stroke-linecap:square;stroke-linejoin:round;stroke-miterlimit:4;stroke-dasharray:none;stroke-opacity:1"
       d="m 114.40176,877.38306 c 3.96614,1.25859 7.85624,10.68045 11.38672,12.75552 3.53049,2.07508 9.6322,0.89826 12.67145,3.67611 3.03925,2.77789 3.01607,9.51037 5.50794,12.87726 2.49187,3.36664 10.43192,2.48981 12.32025,6.33151 1.88861,3.84202 -2.27423,12.40272 -1.04501,16.60561 1.22949,4.20323 7.65259,4.88997 8.16684,9.34086 0.51393,4.45024 -4.88102,12.66398 -5.13819,17.24804 -0.25712,4.58437 3.79756,10.70191 2.71334,15.30559 -1.0842,4.60401 -7.25604,7.47628 -9.04356,11.57445 -1.78752,4.09821 0.543,13.85951 -1.85016,17.38749 -2.39314,3.5279 -9.50936,0.8228 -12.4099,3.715 -2.90024,2.8926 -3.46161,9.4312 -6.77123,11.6233 -3.30966,2.1924 -9.36728,0.039 -12.98806,1.4654 -3.62078,1.4271 -4.27792,7.5063 -8.11188,8.1031 -3.83397,0.5967 -10.844785,-4.289 -14.793659,-4.5873 -3.948914,-0.2977 -7.604955,5.8244 -11.571092,4.5657 -3.966138,-1.2583 -8.054387,-9.8388 -11.584875,-11.9141 -3.530775,-2.0752 -11.412829,1.7017 -14.452086,-1.0764 -3.039257,-2.7777 -0.75598,-11.3785 -3.727272,-15.47662 -2.905221,-4.00734 -10.332849,-2.91063 -12.221381,-6.75224 -1.88856,-3.84172 2.175239,-11.98155 0.945914,-16.18477 -1.229295,-4.20289 -6.992982,-6.03736 -7.507088,-10.4876 -0.514077,-4.45057 4.221456,-11.51723 4.478551,-16.10161 0.257126,-4.58373 -3.435061,-10.58642 -2.350868,-15.19042 1.084194,-4.60336 6.893458,-7.5908 8.681089,-11.68949 1.787631,-4.09853 -0.675804,-11.64123 1.717173,-15.16916 2.393035,-3.52809 9.642453,-3.0411 12.542772,-5.93372 2.900346,-2.89252 2.671658,-11.03805 5.981282,-13.23028 3.309567,-2.19227 10.157419,1.56871 13.77823,0.14167 3.620783,-1.42701 3.850131,-8.99834 7.684094,-9.59507 3.833992,-0.59675 11.272284,5.78102 15.221456,6.0795 3.9489,0.29838 7.80307,-6.66597 11.76921,-5.4074 z"
       id="path5312-8-8"
       inkscape:connector-curvature="0"
       sodipodi:nodetypes="sssssssssssssssssscasssssssssssss" />
    <path
       style="fill:#ffffff;fill-opacity:1;fill-rule:evenodd;stroke:none;stroke-width:1px;stroke-linecap:butt;stroke-linejoin:miter;stroke-opacity:1"
       d="m 68.322189,934.77858 c -1.636041,-13.23261 5.596626,-15.18572 15.079223,-17.96174 7.90898,-9.58563 16.866428,-11.74848 27.370008,-10.69634 0,0 -13.724548,-4.90656 -19.668232,-2.0562 -4.506518,2.16115 -8.120195,12.6046 -8.120195,12.6046 -5.357142,-0.31805 -11.028227,-1.49245 -14.30366,2.03826 -3.65152,3.9361 -1.219186,10.53068 -1.071433,16.07142 0,0 -8.80565,0.75715 -10.591734,4.09446 -3.291416,6.15003 -1.212612,14.71157 4.548766,20.42585 -3.301451,-7.42368 -0.923682,-19.79903 6.757257,-24.52031 z"
       id="path13121"
       inkscape:connector-curvature="0"
       sodipodi:nodetypes="cccacacacc" />
  </g>
</svg>
