<?xml version="1.0" encoding="UTF-8" standalone="no"?>
<!-- Created with Inkscape (http://www.inkscape.org/) -->

<svg
   xmlns:dc="http://purl.org/dc/elements/1.1/"
   xmlns:cc="http://creativecommons.org/ns#"
   xmlns:rdf="http://www.w3.org/1999/02/22-rdf-syntax-ns#"
   xmlns:svg="http://www.w3.org/2000/svg"
   xmlns="http://www.w3.org/2000/svg"
   xmlns:sodipodi="http://sodipodi.sourceforge.net/DTD/sodipodi-0.dtd"
   xmlns:inkscape="http://www.inkscape.org/namespaces/inkscape"
   width="200"
   height="200"
   viewBox="0 0 200 200"
   id="svg2"
   version="1.1"
   inkscape:version="0.91 r13725"
   sodipodi:docname="dragonfruit.svg">
  <defs
     id="defs4" />
  <sodipodi:namedview
     id="base"
     pagecolor="#ffffff"
     bordercolor="#666666"
     borderopacity="1.0"
     inkscape:pageopacity="0.0"
     inkscape:pageshadow="2"
     inkscape:zoom="2.8"
     inkscape:cx="37.951886"
     inkscape:cy="89.747241"
     inkscape:document-units="px"
     inkscape:current-layer="layer1"
     showgrid="false"
     units="px"
     inkscape:window-width="1598"
     inkscape:window-height="898"
     inkscape:window-x="0"
     inkscape:window-y="0"
     inkscape:window-maximized="0" />
  <metadata
     id="metadata7">
    <rdf:RDF>
      <cc:Work
         rdf:about="">
        <dc:format>image/svg+xml</dc:format>
        <dc:type
           rdf:resource="http://purl.org/dc/dcmitype/StillImage" />
        <dc:title></dc:title>
      </cc:Work>
    </rdf:RDF>
  </metadata>
  <g
     inkscape:label="Layer 1"
     inkscape:groupmode="layer"
     id="layer1"
     transform="translate(0,-852.36216)">
    <path
       style="fill:#aa0044;fill-opacity:1;fill-rule:evenodd;stroke:none;stroke-width:1px;stroke-linecap:butt;stroke-linejoin:miter;stroke-opacity:1"
       d="m 75.714285,1028.4336 c -15.302015,-10.0842 -25.086826,-26.3541 -30,-46.07143 l 16.428571,8.92856 c -11.95483,-13.45928 -6.366605,-36.31571 -8.928571,-50.71428 l 15.714286,8.57143 c -12.037946,-12.38095 -3.098815,-29.76191 0.357142,-38.57143 0,0 -0.388579,5.38724 11.785714,8.57143 -1.015527,-20.37835 0.358458,-34.1701 14.642857,-40.35714 -1.425039,18.66262 5.830406,24.90832 18.571426,34.64285 7.04343,-2.14286 10.86785,-7.5 15.35714,-13.57143 1.34206,17.32021 18.41316,50.25049 7.5,62.85715 6.19048,-1.8192 8.09524,-11.72371 14.28572,-18.92858 4.55369,24.85522 3.82563,24.26942 -4.28572,43.21429 8.33502,-3.67695 6.09748,-8.72019 11.42857,-13.57143 -0.47044,18.46627 -7.92051,42.45491 -23.21428,55.35721 -10.84871,13.0491 -47.530684,9.949 -59.642855,-0.3572 z"
       id="path13992"
       inkscape:connector-curvature="0"
       sodipodi:nodetypes="cccccccccccccccc" />
    <path
       style="fill:none;fill-opacity:1;fill-rule:evenodd;stroke:#ff0569;stroke-width:5;stroke-linecap:butt;stroke-linejoin:miter;stroke-miterlimit:4;stroke-dasharray:none;stroke-opacity:1"
       d="m 66.07143,1020.9056 c -15.302015,-10.0842 -25.086826,-26.35406 -30,-46.07133 l 16.428571,8.92856 C 40.545171,970.30355 46.133396,947.44712 43.57143,933.04855 l 15.714286,8.57143 c -12.037946,-12.38095 0.357142,-38.57143 0.357142,-38.57143 0,0 -0.388579,5.38724 11.785714,8.57143 -1.015527,-20.37835 0.358458,-34.1701 14.642855,-40.35714 -1.42504,18.66262 5.83041,24.90832 18.571433,34.64285 7.04343,-2.14286 10.86785,-7.5 15.35714,-13.57143 1.34206,17.32021 18.41316,50.25049 7.5,62.85715 6.19048,-1.8192 8.09524,-11.72371 14.28572,-18.92858 4.55369,24.85522 3.82563,24.26942 -4.28572,43.21429 8.33502,-3.67695 6.09748,-8.72019 11.42857,-13.57143 -0.47044,18.46627 -7.92051,42.45481 -23.21428,55.35711 -10.84871,13.0491 -47.530693,9.949 -59.64286,-0.3572 z"
       id="path13992-4"
       inkscape:connector-curvature="0"
       sodipodi:nodetypes="cccccccccccccccc" />
    <path
       style="fill:#ffffff;fill-rule:evenodd;stroke:none;stroke-width:1px;stroke-linecap:butt;stroke-linejoin:miter;stroke-opacity:1"
       d="m 84.285715,955.57644 c -8.39316,-10.74994 -20.396981,-17.77775 -10.714286,-32.14286 -1.447375,8.45645 2.992926,17.46128 10.714286,32.14286 z"
       id="path14009"
       inkscape:connector-curvature="0"
       sodipodi:nodetypes="ccc" />
    <path
       style="fill:#ffffff;fill-rule:evenodd;stroke:none;stroke-width:1px;stroke-linecap:butt;stroke-linejoin:miter;stroke-opacity:1"
       d="M 62.499999,954.14787 C 55.31386,970.40514 62.985152,980.0323 74.285714,991.64795 62.03609,974.07901 67.296911,966.16209 62.499999,954.14787 Z"
       id="path14011"
       inkscape:connector-curvature="0"
       sodipodi:nodetypes="ccc" />
  </g>
</svg>
