<?xml version="1.0" encoding="UTF-8" standalone="no"?>
<!-- Created with Inkscape (http://www.inkscape.org/) -->

<svg
   xmlns:dc="http://purl.org/dc/elements/1.1/"
   xmlns:cc="http://creativecommons.org/ns#"
   xmlns:rdf="http://www.w3.org/1999/02/22-rdf-syntax-ns#"
   xmlns:svg="http://www.w3.org/2000/svg"
   xmlns="http://www.w3.org/2000/svg"
   xmlns:sodipodi="http://sodipodi.sourceforge.net/DTD/sodipodi-0.dtd"
   xmlns:inkscape="http://www.inkscape.org/namespaces/inkscape"
   width="200"
   height="200"
   viewBox="0 0 200 200"
   id="svg2"
   version="1.1"
   inkscape:version="0.91 r13725"
   sodipodi:docname="mangosteen.svg">
  <defs
     id="defs4">
    <clipPath
       clipPathUnits="userSpaceOnUse"
       id="clipPath18107">
      <path
         sodipodi:nodetypes="aaaccassacaaacaa"
         inkscape:connector-curvature="0"
         id="path18109"
         d="m 64.642857,919.14787 c -1.502683,-7.90401 8.15035,-16.04197 15.916061,-18.14557 7.198743,-1.95003 14.630129,10.55388 21.226792,7.07415 6.13253,-3.2349 5.71429,-20 5.71429,-20 6.22105,-1.56345 8.02056,2.03157 10.35714,5 0,0 -9.7165,11.55312 -6.42857,16.42857 3.19518,4.73793 11.87538,-2.05246 17.14286,0.19126 5.56071,2.36862 10.4529,9.43275 10.27048,15.94888 -0.16405,5.86011 -9.59906,4.65023 -14.5562,3.85986 -5.18477,-0.82667 -6.63798,-8.15394 -13.21428,-8.57143 0,0 0.72413,10.88478 -2.5,14.64286 -3.67689,4.28582 -10.793699,7.36545 -16.07143,5.35714 -5.133859,-1.95356 -8.989414,-8.8477 -8.214286,-14.28572 0.605932,-4.25101 9.285715,-8.92857 9.285715,-8.92857 -6.992807,-2.2116 -10.358943,7.94488 -16.428572,7.85715 -4.684909,-0.0677 -11.624903,-1.82563 -12.5,-6.42858 z"
         style="fill:#00ff00;fill-opacity:1;fill-rule:evenodd;stroke:none;stroke-width:1px;stroke-linecap:butt;stroke-linejoin:miter;stroke-opacity:1" />
    </clipPath>
  </defs>
  <sodipodi:namedview
     id="base"
     pagecolor="#ffffff"
     bordercolor="#666666"
     borderopacity="1.0"
     inkscape:pageopacity="0.0"
     inkscape:pageshadow="2"
     inkscape:zoom="2.8"
     inkscape:cx="72.858326"
     inkscape:cy="90.131596"
     inkscape:document-units="px"
     inkscape:current-layer="layer1"
     showgrid="false"
     units="px"
     inkscape:window-width="1598"
     inkscape:window-height="898"
     inkscape:window-x="0"
     inkscape:window-y="0"
     inkscape:window-maximized="0"
     showguides="true" />
  <metadata
     id="metadata7">
    <rdf:RDF>
      <cc:Work
         rdf:about="">
        <dc:format>image/svg+xml</dc:format>
        <dc:type
           rdf:resource="http://purl.org/dc/dcmitype/StillImage" />
        <dc:title></dc:title>
      </cc:Work>
    </rdf:RDF>
  </metadata>
  <g
     inkscape:label="Layer 1"
     inkscape:groupmode="layer"
     id="layer1"
     transform="translate(0,-852.36216)">
    <path
       style="opacity:1;fill:#800066;fill-opacity:1;fill-rule:nonzero;stroke:none;stroke-width:5;stroke-linecap:square;stroke-linejoin:round;stroke-miterlimit:4;stroke-dasharray:none;stroke-opacity:1"
       d="m 150.22407,960.3261 c 3.13041,26.1349 -23.72388,49.4643 -49.46428,49.4643 -25.740411,0 -37.35076,-9.073 -45.892861,-43.75001 -6.251037,-25.37632 22.652443,-48.39286 48.392861,-48.39286 25.74041,0 43.85609,16.72915 46.96428,42.67857 z"
       id="path17488"
       inkscape:connector-curvature="0"
       sodipodi:nodetypes="sssss" />
    <path
       style="opacity:1;fill:none;fill-opacity:1;fill-rule:nonzero;stroke:#f100bf;stroke-width:5;stroke-linecap:square;stroke-linejoin:round;stroke-miterlimit:4;stroke-dasharray:none;stroke-opacity:1"
       d="m 138.89881,954.77258 c 3.13041,26.13488 -23.72388,49.46422 -49.464277,49.46422 -25.740411,0 -37.35076,-9.07294 -45.892861,-43.74993 -6.251037,-25.37632 22.652443,-48.39286 48.392861,-48.39286 25.740407,0 43.856087,16.72915 46.964277,42.67857 z"
       id="path17488-6"
       inkscape:connector-curvature="0"
       sodipodi:nodetypes="sssss" />
    <path
       style="fill:#ffffff;fill-opacity:1;fill-rule:evenodd;stroke:none;stroke-width:1px;stroke-linecap:butt;stroke-linejoin:miter;stroke-opacity:1"
       d="m 65.407377,968.26695 c 3.441914,-36.68448 6.238506,-34.24555 39.395943,-37.1231 -23.564401,4.64207 -36.030052,19.22157 -39.395943,37.1231 z"
       id="path18111"
       inkscape:connector-curvature="0"
       sodipodi:nodetypes="ccc" />
    <path
       style="fill:#00ff00;fill-rule:evenodd;stroke:none;stroke-width:1px;stroke-linecap:butt;stroke-linejoin:miter;stroke-opacity:1;fill-opacity:1"
       d="m 64.642857,919.14787 c -1.502683,-7.90401 8.15035,-16.04197 15.916061,-18.14557 7.198743,-1.95003 14.630129,10.55388 21.226792,7.07415 6.13253,-3.2349 5.71429,-20 5.71429,-20 6.22105,-1.56345 8.02056,2.03157 10.35714,5 0,0 -9.7165,11.55312 -6.42857,16.42857 3.19518,4.73793 11.87538,-2.05246 17.14286,0.19126 5.56071,2.36862 10.4529,9.43275 10.27048,15.94888 -0.16405,5.86011 -9.59906,4.65023 -14.5562,3.85986 -5.18477,-0.82667 -6.63798,-8.15394 -13.21428,-8.57143 0,0 0.72413,10.88478 -2.5,14.64286 -3.67689,4.28582 -10.793699,7.36545 -16.07143,5.35714 -5.133859,-1.95356 -8.989414,-8.8477 -8.214286,-14.28572 0.605932,-4.25101 9.285715,-8.92857 9.285715,-8.92857 -6.992807,-2.2116 -10.358943,7.94488 -16.428572,7.85715 -4.684909,-0.0677 -11.624903,-1.82563 -12.5,-6.42858 z"
       id="path17491"
       inkscape:connector-curvature="0"
       sodipodi:nodetypes="aaaccassacaaacaa" />
    <g
       id="g18090"
       clip-path="url(#clipPath18107)">
      <path
         sodipodi:nodetypes="cccc"
         inkscape:connector-curvature="0"
         id="path18082"
         d="m 79.296975,948.31644 c 11.51511,-9.03223 23.269815,-17.89859 26.263965,-32.82995 5.0088,4.34885 10.53692,6.96662 13.63706,17.67767 -5.49677,12.20403 -26.578778,10.1216 -39.901025,15.15228 z"
         style="fill:#008000;fill-rule:evenodd;stroke:none;stroke-width:1px;stroke-linecap:butt;stroke-linejoin:miter;stroke-opacity:1;fill-opacity:1" />
      <path
         sodipodi:nodetypes="ccccc"
         inkscape:connector-curvature="0"
         id="path18084"
         d="m 85.610429,922.05248 c 2.8405,-2.54653 9.425647,-7.42511 9.091373,-10.6066 -9.316427,6.55848 -25.38425,8.59843 -39.901026,10.6066 L 71.215755,935.437 Z"
         style="fill:#008000;fill-rule:evenodd;stroke:none;stroke-width:1px;stroke-linecap:butt;stroke-linejoin:miter;stroke-opacity:1;fill-opacity:1" />
      <path
         sodipodi:nodetypes="ccccc"
         inkscape:connector-curvature="0"
         id="path18086"
         d="m 121.72338,907.65781 c 16.84874,12.68843 10.88183,18.4674 3.03046,29.29442 l 27.77919,-11.11168 -15.40482,-23.23351 z"
         style="fill:#008000;fill-rule:evenodd;stroke:none;stroke-width:1px;stroke-linecap:butt;stroke-linejoin:miter;stroke-opacity:1;fill-opacity:1" />
      <path
         sodipodi:nodetypes="cccc"
         inkscape:connector-curvature="0"
         id="path18088"
         d="m 111.62186,909.42557 c -6.53806,-6.66416 2.05544,-18.05693 5.3033,-27.77919 l 7.57614,6.81853 z"
         style="fill:#008000;fill-rule:evenodd;stroke:none;stroke-width:1px;stroke-linecap:butt;stroke-linejoin:miter;stroke-opacity:1;fill-opacity:1" />
    </g>
  </g>
</svg>
