<?xml version="1.0" encoding="UTF-8" standalone="no"?>
<!-- Created with Inkscape (http://www.inkscape.org/) -->

<svg
   xmlns:dc="http://purl.org/dc/elements/1.1/"
   xmlns:cc="http://creativecommons.org/ns#"
   xmlns:rdf="http://www.w3.org/1999/02/22-rdf-syntax-ns#"
   xmlns:svg="http://www.w3.org/2000/svg"
   xmlns="http://www.w3.org/2000/svg"
   xmlns:sodipodi="http://sodipodi.sourceforge.net/DTD/sodipodi-0.dtd"
   xmlns:inkscape="http://www.inkscape.org/namespaces/inkscape"
   width="200"
   height="200"
   viewBox="0 0 200 200"
   id="svg2"
   version="1.1"
   inkscape:version="0.91 r13725"
   sodipodi:docname="persimmon.svg">
  <defs
     id="defs4">
    <clipPath
       clipPathUnits="userSpaceOnUse"
       id="clipPath18221">
      <path
         sodipodi:nodetypes="ccccccac"
         inkscape:connector-curvature="0"
         id="path18223"
         d="m -74.285714,903.07645 c -19.548234,1.55906 -33.664546,10.22777 -41.785716,20.35714 15.47619,-9.8485 31.666669,-7.10048 47.142859,-7.5 10.998054,8.09312 21.625656,16.317 16.785714,30 5.800846,-8.45238 13.369275,-16.90476 8.214286,-25.35714 12.233134,4.59574 26.555108,3.96937 35.357142,17.14286 2.7606607,-8.16604 -1.2949676,-13.24259 -5.714285,-17.5 -14.979889,-14.43108 -37.930977,-14.38432 -60,-17.14286 z"
         style="fill:#00ff00;fill-opacity:1;fill-rule:evenodd;stroke:none;stroke-width:1px;stroke-linecap:butt;stroke-linejoin:miter;stroke-opacity:1" />
    </clipPath>
  </defs>
  <sodipodi:namedview
     id="base"
     pagecolor="#ffffff"
     bordercolor="#666666"
     borderopacity="1.0"
     inkscape:pageopacity="0.0"
     inkscape:pageshadow="2"
     inkscape:zoom="2.8"
     inkscape:cx="9.9779081"
     inkscape:cy="90.833849"
     inkscape:document-units="px"
     inkscape:current-layer="layer1"
     showgrid="false"
     units="px"
     inkscape:window-width="1598"
     inkscape:window-height="898"
     inkscape:window-x="0"
     inkscape:window-y="0"
     inkscape:window-maximized="0" />
  <metadata
     id="metadata7">
    <rdf:RDF>
      <cc:Work
         rdf:about="">
        <dc:format>image/svg+xml</dc:format>
        <dc:type
           rdf:resource="http://purl.org/dc/dcmitype/StillImage" />
        <dc:title></dc:title>
      </cc:Work>
    </rdf:RDF>
  </metadata>
  <g
     inkscape:label="Layer 1"
     inkscape:groupmode="layer"
     id="layer1"
     transform="translate(0,-852.36216)">
    <path
       style="fill:#ff6600;fill-rule:evenodd;stroke:none;stroke-width:1.17290688px;stroke-linecap:butt;stroke-linejoin:miter;stroke-opacity:1"
       d="m 35.070941,952.0453 c 4.9462,-31.71492 50.568198,-46.12027 78.674829,-41.39097 26.20291,4.40897 61.48367,30.93286 56.96527,60.51399 -4.69248,30.72088 -47.90519,46.21268 -75.231582,42.37188 -27.356506,-3.845 -65.202627,-30.7551 -60.408517,-61.4949 z"
       id="path18204"
       inkscape:connector-curvature="0"
       sodipodi:nodetypes="aaaaa" />
    <path
       style="fill:#ffffff;fill-rule:evenodd;stroke:none;stroke-width:1px;stroke-linecap:butt;stroke-linejoin:miter;stroke-opacity:1"
       d="m 50.513701,956.17978 c 10.7363,-31.82387 25.395609,-33.86181 40.206317,-31.46076 -21.684982,9.4502 -27.401597,14.43375 -40.206317,31.46076 z"
       id="path4712"
       inkscape:connector-curvature="0"
       sodipodi:nodetypes="ccc" />
    <path
       style="fill:none;fill-rule:evenodd;stroke:#ffaa72;stroke-width:5;stroke-linecap:butt;stroke-linejoin:miter;stroke-miterlimit:4;stroke-dasharray:none;stroke-opacity:1"
       d="m 23.261401,947.4621 c 4.9462,-31.71492 50.568203,-46.12027 78.674839,-41.39097 26.20291,4.40897 61.48367,30.93286 56.96527,60.51399 -4.69248,30.72084 -47.90519,46.21268 -75.231587,42.37188 -27.356502,-3.845 -65.202632,-30.7551 -60.408522,-61.4949 z"
       id="path18204-7"
       inkscape:connector-curvature="0"
       sodipodi:nodetypes="aaaaa" />
    <path
       style="fill:#00ff00;fill-opacity:1;fill-rule:evenodd;stroke:none;stroke-width:1px;stroke-linecap:butt;stroke-linejoin:miter;stroke-opacity:1"
       d="m 87.142857,898.43359 c -19.548234,1.55906 -33.664546,10.22777 -41.785716,20.35714 15.47619,-9.8485 31.666669,-7.10048 47.142859,-7.5 10.99805,8.09312 21.62566,16.317 16.78571,30 5.80085,-8.45238 13.36928,-16.90476 8.21429,-25.35714 12.23313,4.59574 26.55511,3.96937 35.35714,17.14286 2.76066,-8.16604 -1.29497,-13.24259 -5.71428,-17.5 -14.97989,-14.43108 -37.93098,-14.38432 -60.000003,-17.14286 z"
       id="path18206"
       inkscape:connector-curvature="0"
       sodipodi:nodetypes="ccccccac" />
    <g
       id="g18214"
       clip-path="url(#clipPath18221)"
       transform="translate(161.42857,-4.6428572)">
      <path
         sodipodi:nodetypes="cccc"
         inkscape:connector-curvature="0"
         id="path18208"
         d="m -53.928571,949.50502 c 6.89557,-1.78572 5.806702,-39.28572 0.357142,-39.28572 8.767158,4.42087 15.975339,18.19559 22.857143,33.92857 z"
         style="fill:#008000;fill-opacity:1;fill-rule:evenodd;stroke:none;stroke-width:1px;stroke-linecap:butt;stroke-linejoin:miter;stroke-opacity:1" />
      <path
         sodipodi:nodetypes="cccc"
         inkscape:connector-curvature="0"
         id="path18210"
         d="M -8.9285715,946.64788 C -2.6386901,927.53796 -30.892608,920.06121 -51.428571,905.57644 L 8.2142857,905.2193 Z"
         style="fill:#008000;fill-opacity:1;fill-rule:evenodd;stroke:none;stroke-width:1px;stroke-linecap:butt;stroke-linejoin:miter;stroke-opacity:1" />
      <path
         sodipodi:nodetypes="ccccc"
         inkscape:connector-curvature="0"
         id="path18212"
         d="m -122.85714,925.57645 c 15.47289,-5.13391 29.086366,-18.63516 46.428569,-15.35715 7.09658,2.51543 9.254682,6.67701 10.714285,11.07143 l -16.428571,6.78572 z"
         style="fill:#008000;fill-opacity:1;fill-rule:evenodd;stroke:none;stroke-width:1px;stroke-linecap:butt;stroke-linejoin:miter;stroke-opacity:1" />
    </g>
  </g>
</svg>
