<?xml version="1.0" encoding="UTF-8" standalone="no"?>
<!-- Created with Inkscape (http://www.inkscape.org/) -->

<svg
   xmlns:dc="http://purl.org/dc/elements/1.1/"
   xmlns:cc="http://creativecommons.org/ns#"
   xmlns:rdf="http://www.w3.org/1999/02/22-rdf-syntax-ns#"
   xmlns:svg="http://www.w3.org/2000/svg"
   xmlns="http://www.w3.org/2000/svg"
   xmlns:sodipodi="http://sodipodi.sourceforge.net/DTD/sodipodi-0.dtd"
   xmlns:inkscape="http://www.inkscape.org/namespaces/inkscape"
   width="200"
   height="200"
   viewBox="0 0 200 200"
   id="svg2"
   version="1.1"
   inkscape:version="0.91 r13725"
   sodipodi:docname="pomegranate.svg">
  <defs
     id="defs4">
    <clipPath
       clipPathUnits="userSpaceOnUse"
       id="clipPath18221">
      <path
         sodipodi:nodetypes="ccccccac"
         inkscape:connector-curvature="0"
         id="path18223"
         d="m -74.285714,903.07645 c -19.548234,1.55906 -33.664546,10.22777 -41.785716,20.35714 15.47619,-9.8485 31.666669,-7.10048 47.142859,-7.5 10.998054,8.09312 21.625656,16.317 16.785714,30 5.800846,-8.45238 13.369275,-16.90476 8.214286,-25.35714 12.233134,4.59574 26.555108,3.96937 35.357142,17.14286 2.7606607,-8.16604 -1.2949676,-13.24259 -5.714285,-17.5 -14.979889,-14.43108 -37.930977,-14.38432 -60,-17.14286 z"
         style="fill:#00ff00;fill-opacity:1;fill-rule:evenodd;stroke:none;stroke-width:1px;stroke-linecap:butt;stroke-linejoin:miter;stroke-opacity:1" />
    </clipPath>
    <clipPath
       clipPathUnits="userSpaceOnUse"
       id="clipPath18221-3">
      <path
         sodipodi:nodetypes="ccccccac"
         inkscape:connector-curvature="0"
         id="path18223-1"
         d="m -74.285714,903.07645 c -19.548234,1.55906 -33.664546,10.22777 -41.785716,20.35714 15.47619,-9.8485 31.666669,-7.10048 47.142859,-7.5 10.998054,8.09312 21.625656,16.317 16.785714,30 5.800846,-8.45238 13.369275,-16.90476 8.214286,-25.35714 12.233134,4.59574 26.555108,3.96937 35.357142,17.14286 2.7606607,-8.16604 -1.2949676,-13.24259 -5.714285,-17.5 -14.979889,-14.43108 -37.930977,-14.38432 -60,-17.14286 z"
         style="fill:#00ff00;fill-opacity:1;fill-rule:evenodd;stroke:none;stroke-width:1px;stroke-linecap:butt;stroke-linejoin:miter;stroke-opacity:1" />
    </clipPath>
    <clipPath
       clipPathUnits="userSpaceOnUse"
       id="clipPath18950">
      <path
         sodipodi:nodetypes="ccccccccsccccccccc"
         inkscape:connector-curvature="0"
         id="path18952"
         d="M 91.068346,946.43589 C 73.851604,938.78139 59.573135,929.89284 54.552545,917.116 c 7.875958,0.62039 17.759305,9.57611 25.635263,3.29186 -20.58726,-6.2218 -15.445483,-18.50549 -24.40784,-27.77881 7.671387,2.77625 17.842775,6.9554 25.514162,3.93626 -15.442348,-5.04917 -24.01421,-15.73212 -31.651273,-24.87904 11.828403,4.45335 20.889303,11.32825 37.129516,11.92128 -3.355902,-9.08252 -14.777299,-15.1405 -7.978243,-28.03111 -2.187037,6.88914 19.651966,21.3133 23.93473,20.94279 6.70454,-0.58004 27.02151,-11.17832 26.08272,-11.27689 1.45307,7.65917 -2.50966,12.20457 -6.75082,19.0096 l 26.38957,-1.28879 c -4.2897,11.3293 -12.32064,14.23021 -24.9764,20.76806 l 32.95465,-3.69164 c -8.56924,8.06685 -13.80504,17.88373 -33.1404,20.29839 l 27.31014,2.25538 c -8.9229,16.47412 -13.1504,18.72388 -31.60612,23.52035 z"
         style="fill:#00ff00;fill-opacity:1;fill-rule:evenodd;stroke:none;stroke-width:1px;stroke-linecap:butt;stroke-linejoin:miter;stroke-opacity:1" />
    </clipPath>
  </defs>
  <sodipodi:namedview
     id="base"
     pagecolor="#ffffff"
     bordercolor="#666666"
     borderopacity="1.0"
     inkscape:pageopacity="0.0"
     inkscape:pageshadow="2"
     inkscape:zoom="2.8"
     inkscape:cx="111.32181"
     inkscape:cy="92.846377"
     inkscape:document-units="px"
     inkscape:current-layer="layer1"
     showgrid="false"
     units="px"
     inkscape:window-width="1598"
     inkscape:window-height="898"
     inkscape:window-x="0"
     inkscape:window-y="0"
     inkscape:window-maximized="0" />
  <metadata
     id="metadata7">
    <rdf:RDF>
      <cc:Work
         rdf:about="">
        <dc:format>image/svg+xml</dc:format>
        <dc:type
           rdf:resource="http://purl.org/dc/dcmitype/StillImage" />
        <dc:title></dc:title>
      </cc:Work>
    </rdf:RDF>
  </metadata>
  <g
     inkscape:label="Layer 1"
     inkscape:groupmode="layer"
     id="layer1"
     transform="translate(0,-852.36216)">
    <path
       style="fill:#800000;fill-rule:evenodd;stroke:none;stroke-width:1.20773733px;stroke-linecap:butt;stroke-linejoin:miter;stroke-opacity:1"
       d="m 105.73449,1027.234 c -26.735993,-0.1265 -51.003929,-20.1745 -61.901843,-38.69666 -9.630056,-16.36735 -10.1034,-38.79532 2.97129,-53.72438 10.29798,-11.75852 39.851689,-6.46211 50.511908,-18.03334 5.316675,-5.77103 2.476074,-21.03892 2.476074,-21.03892 4.197621,2.59375 16.101971,7.14623 24.760741,0 0,0 -7.82164,14.41049 -4.45694,21.03892 6.16103,12.13711 31.99958,12.96264 40.11241,24.42017 10.27607,14.51264 14.42587,34.05116 5.94257,49.21603 -10.09148,18.03978 -34.58522,36.94038 -60.41621,36.81818 z"
       id="path19536"
       inkscape:connector-curvature="0"
       sodipodi:nodetypes="aaaaccaaaa" />
    <path
       style="fill:none;fill-rule:evenodd;stroke:#d50000;stroke-width:5;stroke-linecap:butt;stroke-linejoin:miter;stroke-miterlimit:4;stroke-dasharray:none;stroke-opacity:1"
       d="m 98.776934,1021.68 c -26.73599,-0.1265 -51.003929,-20.1745 -61.901842,-38.69669 -9.630056,-16.36735 -10.1034,-38.79532 2.971289,-53.72438 10.29798,-11.75852 39.851693,-6.46211 50.511913,-18.03334 5.31667,-5.77103 2.47607,-21.03892 2.47607,-21.03892 4.19762,2.59375 16.101966,7.14623 24.760736,0 0,0 -7.82164,14.41049 -4.45694,21.03892 6.16103,12.13711 31.99958,12.96264 40.11241,24.42017 10.27607,14.51264 14.42587,34.05116 5.94257,49.21603 -10.09148,18.03981 -34.58522,36.94041 -60.416206,36.81821 z"
       id="path19536-8"
       inkscape:connector-curvature="0"
       sodipodi:nodetypes="aaaaccaaaa" />
    <path
       style="fill:#ffffff;fill-opacity:1;fill-rule:evenodd;stroke:none;stroke-width:1px;stroke-linecap:butt;stroke-linejoin:miter;stroke-opacity:1"
       d="m 48.571429,979.86216 c -0.859184,-29.61707 -2.987187,-45.46487 34.28572,-46.07142 -34.725426,4.37634 -27.115065,22.70222 -34.28572,46.07142 z"
       id="path19555"
       inkscape:connector-curvature="0"
       sodipodi:nodetypes="ccc" />
  </g>
</svg>
