<?xml version="1.0" encoding="UTF-8" standalone="no"?>
<!-- Created with Inkscape (http://www.inkscape.org/) -->

<svg
   xmlns:dc="http://purl.org/dc/elements/1.1/"
   xmlns:cc="http://creativecommons.org/ns#"
   xmlns:rdf="http://www.w3.org/1999/02/22-rdf-syntax-ns#"
   xmlns:svg="http://www.w3.org/2000/svg"
   xmlns="http://www.w3.org/2000/svg"
   xmlns:sodipodi="http://sodipodi.sourceforge.net/DTD/sodipodi-0.dtd"
   xmlns:inkscape="http://www.inkscape.org/namespaces/inkscape"
   width="200"
   height="200"
   viewBox="0 0 200 200"
   id="svg2"
   version="1.1"
   inkscape:version="0.91 r13725"
   sodipodi:docname="starfruit.svg">
  <defs
     id="defs4">
    <clipPath
       clipPathUnits="userSpaceOnUse"
       id="clipPath18221">
      <path
         sodipodi:nodetypes="ccccccac"
         inkscape:connector-curvature="0"
         id="path18223"
         d="m -74.285714,903.07645 c -19.548234,1.55906 -33.664546,10.22777 -41.785716,20.35714 15.47619,-9.8485 31.666669,-7.10048 47.142859,-7.5 10.998054,8.09312 21.625656,16.317 16.785714,30 5.800846,-8.45238 13.369275,-16.90476 8.214286,-25.35714 12.233134,4.59574 26.555108,3.96937 35.357142,17.14286 2.7606607,-8.16604 -1.2949676,-13.24259 -5.714285,-17.5 -14.979889,-14.43108 -37.930977,-14.38432 -60,-17.14286 z"
         style="fill:#00ff00;fill-opacity:1;fill-rule:evenodd;stroke:none;stroke-width:1px;stroke-linecap:butt;stroke-linejoin:miter;stroke-opacity:1" />
    </clipPath>
    <clipPath
       clipPathUnits="userSpaceOnUse"
       id="clipPath18221-3">
      <path
         sodipodi:nodetypes="ccccccac"
         inkscape:connector-curvature="0"
         id="path18223-1"
         d="m -74.285714,903.07645 c -19.548234,1.55906 -33.664546,10.22777 -41.785716,20.35714 15.47619,-9.8485 31.666669,-7.10048 47.142859,-7.5 10.998054,8.09312 21.625656,16.317 16.785714,30 5.800846,-8.45238 13.369275,-16.90476 8.214286,-25.35714 12.233134,4.59574 26.555108,3.96937 35.357142,17.14286 2.7606607,-8.16604 -1.2949676,-13.24259 -5.714285,-17.5 -14.979889,-14.43108 -37.930977,-14.38432 -60,-17.14286 z"
         style="fill:#00ff00;fill-opacity:1;fill-rule:evenodd;stroke:none;stroke-width:1px;stroke-linecap:butt;stroke-linejoin:miter;stroke-opacity:1" />
    </clipPath>
    <clipPath
       clipPathUnits="userSpaceOnUse"
       id="clipPath18950">
      <path
         sodipodi:nodetypes="ccccccccsccccccccc"
         inkscape:connector-curvature="0"
         id="path18952"
         d="M 91.068346,946.43589 C 73.851604,938.78139 59.573135,929.89284 54.552545,917.116 c 7.875958,0.62039 17.759305,9.57611 25.635263,3.29186 -20.58726,-6.2218 -15.445483,-18.50549 -24.40784,-27.77881 7.671387,2.77625 17.842775,6.9554 25.514162,3.93626 -15.442348,-5.04917 -24.01421,-15.73212 -31.651273,-24.87904 11.828403,4.45335 20.889303,11.32825 37.129516,11.92128 -3.355902,-9.08252 -14.777299,-15.1405 -7.978243,-28.03111 -2.187037,6.88914 19.651966,21.3133 23.93473,20.94279 6.70454,-0.58004 27.02151,-11.17832 26.08272,-11.27689 1.45307,7.65917 -2.50966,12.20457 -6.75082,19.0096 l 26.38957,-1.28879 c -4.2897,11.3293 -12.32064,14.23021 -24.9764,20.76806 l 32.95465,-3.69164 c -8.56924,8.06685 -13.80504,17.88373 -33.1404,20.29839 l 27.31014,2.25538 c -8.9229,16.47412 -13.1504,18.72388 -31.60612,23.52035 z"
         style="fill:#00ff00;fill-opacity:1;fill-rule:evenodd;stroke:none;stroke-width:1px;stroke-linecap:butt;stroke-linejoin:miter;stroke-opacity:1" />
    </clipPath>
  </defs>
  <sodipodi:namedview
     id="base"
     pagecolor="#ffffff"
     bordercolor="#666666"
     borderopacity="1.0"
     inkscape:pageopacity="0.0"
     inkscape:pageshadow="2"
     inkscape:zoom="2.8"
     inkscape:cx="111.32181"
     inkscape:cy="111.5509"
     inkscape:document-units="px"
     inkscape:current-layer="layer1"
     showgrid="false"
     units="px"
     inkscape:window-width="1598"
     inkscape:window-height="898"
     inkscape:window-x="0"
     inkscape:window-y="0"
     inkscape:window-maximized="0" />
  <metadata
     id="metadata7">
    <rdf:RDF>
      <cc:Work
         rdf:about="">
        <dc:format>image/svg+xml</dc:format>
        <dc:type
           rdf:resource="http://purl.org/dc/dcmitype/StillImage" />
        <dc:title></dc:title>
      </cc:Work>
    </rdf:RDF>
  </metadata>
  <g
     inkscape:label="Layer 1"
     inkscape:groupmode="layer"
     id="layer1"
     transform="translate(0,-852.36216)">
    <path
       style="opacity:1;fill:#7fff2a;fill-opacity:1;fill-rule:nonzero;stroke:none;stroke-width:5;stroke-linecap:square;stroke-linejoin:round;stroke-miterlimit:4;stroke-dasharray:none;stroke-opacity:1"
       inkscape:transform-center-x="5.343514"
       inkscape:transform-center-y="-1.4959303"
       d="m 162.33616,1005.4272 c -15.68073,0.3229 -31.93891,6.4205 -45.83302,-11.12261 -3.38782,22.37991 -18.632533,27.82141 -35.145971,31.45051 -11.235434,-16.5884 -13.294521,-32.34252 -3.584946,-47.02681 -15.23221,-2.64936 -30.210973,-6.10976 -40.771959,-23.70704 10.668553,-15.3805 26.322353,-18.65397 43.617383,-17.94159 0.414267,-16.15878 -0.540946,-32.69104 9.947512,-46.10231 11.493041,9.02659 22.785711,18.50401 30.541981,35.93834 14.14993,-9.04538 28.13836,-18.8982 46.91986,-4.78576 -7.39493,14.23644 -5.52439,37.73836 -24.74141,40.1527 8.60663,11.44816 19.46883,19.96408 19.05057,43.14457 z"
       id="path20242"
       inkscape:connector-curvature="0"
       sodipodi:nodetypes="ccccccccccc" />
    <path
       style="opacity:1;fill:none;fill-opacity:1;fill-rule:nonzero;stroke:#cbffab;stroke-width:5;stroke-linecap:square;stroke-linejoin:round;stroke-miterlimit:4;stroke-dasharray:none;stroke-opacity:1"
       inkscape:transform-center-x="5.343514"
       inkscape:transform-center-y="-1.4959303"
       d="m 151.96539,999.4231 c -15.68073,0.3229 -31.93891,6.4205 -45.83302,-11.12258 -3.38782,22.37988 -18.632535,27.82138 -35.145975,31.45048 -11.23543,-16.5884 -13.29452,-32.34249 -3.58494,-47.02678 -15.23221,-2.64936 -30.21098,-6.10976 -40.77196,-23.70704 10.66855,-15.3805 26.32235,-18.65397 43.61738,-17.94159 0.41427,-16.15878 -0.54095,-32.69104 9.94751,-46.10231 11.49304,9.02659 22.785715,18.50401 30.541985,35.93834 14.14993,-9.04538 28.13836,-18.8982 46.91986,-4.78576 -7.39493,14.23644 -5.52439,37.73837 -24.74141,40.1527 8.60663,11.44816 19.46883,19.96408 19.05057,43.14454 z"
       id="path20242-7"
       inkscape:connector-curvature="0"
       sodipodi:nodetypes="ccccccccccc" />
    <path
       style="fill:#ffffff;fill-rule:evenodd;stroke:none;stroke-width:1px;stroke-linecap:butt;stroke-linejoin:miter;stroke-opacity:1"
       d="m 92.857143,915.2193 c -2.688887,10.05746 -3.197867,20.5509 3.571428,32.5 -20.156343,-6.76994 -32.19549,1.53491 -46.071428,6.42857 24.956239,-6.26454 40.935138,-3.89424 56.428577,2.14286 C 96.584119,942.36216 91.66997,929.14787 92.857143,915.2193 Z"
       id="path20260"
       inkscape:connector-curvature="0"
       sodipodi:nodetypes="ccccc" />
  </g>
</svg>
