<?xml version="1.0" encoding="UTF-8" standalone="no"?>
<!-- Created with Inkscape (http://www.inkscape.org/) -->

<svg
   xmlns:dc="http://purl.org/dc/elements/1.1/"
   xmlns:cc="http://creativecommons.org/ns#"
   xmlns:rdf="http://www.w3.org/1999/02/22-rdf-syntax-ns#"
   xmlns:svg="http://www.w3.org/2000/svg"
   xmlns="http://www.w3.org/2000/svg"
   xmlns:sodipodi="http://sodipodi.sourceforge.net/DTD/sodipodi-0.dtd"
   xmlns:inkscape="http://www.inkscape.org/namespaces/inkscape"
   width="200"
   height="200"
   viewBox="0 0 200 200"
   id="svg2"
   version="1.1"
   inkscape:version="0.91 r13725"
   sodipodi:docname="banana.svg">
  <defs
     id="defs4" />
  <sodipodi:namedview
     id="base"
     pagecolor="#ffffff"
     bordercolor="#666666"
     borderopacity="1.0"
     inkscape:pageopacity="0.0"
     inkscape:pageshadow="2"
     inkscape:zoom="2.8"
     inkscape:cx="134.45408"
     inkscape:cy="104.56635"
     inkscape:document-units="px"
     inkscape:current-layer="layer1"
     showgrid="false"
     units="px"
     inkscape:window-width="1598"
     inkscape:window-height="898"
     inkscape:window-x="0"
     inkscape:window-y="0"
     inkscape:window-maximized="0" />
  <metadata
     id="metadata7">
    <rdf:RDF>
      <cc:Work
         rdf:about="">
        <dc:format>image/svg+xml</dc:format>
        <dc:type
           rdf:resource="http://purl.org/dc/dcmitype/StillImage" />
        <dc:title></dc:title>
      </cc:Work>
    </rdf:RDF>
  </metadata>
  <g
     inkscape:label="Layer 1"
     inkscape:groupmode="layer"
     id="layer1"
     transform="translate(0,-852.36216)">
    <path
       style="fill:#ffcc00;fill-rule:evenodd;stroke:none;stroke-width:1px;stroke-linecap:butt;stroke-linejoin:miter;stroke-opacity:1"
       d="m 36.785714,1042.005 c -3.036898,-2.4722 -3.862363,-2.4652 -2.484994,-6.2237 1.377368,-3.7586 5.725926,-15.7997 9.984994,-19.4906 C 95.948707,971.51966 122.76307,936.03948 135,890.93359 c 2.18415,-8.05086 13.67684,-10.05996 17.76107,-13.33751 2.04212,-1.63878 1.05258,-7.89882 1.50975,-11.23412 0,0 6.17824,-1.87883 7.14353,0.27168 2.1286,4.74215 0.99486,13.62644 5.5244,18.75109 4.52954,5.12465 10.79379,19.12274 10.9184,25.19172 1.32639,64.6004 -64.67606,109.70005 -119.642864,132.49995 -6.606028,2.7401 -15.661511,3.6233 -21.428572,-1.0714 z"
       id="path7200"
       inkscape:connector-curvature="0"
       sodipodi:nodetypes="sssssssssas" />
    <path
       style="fill:none;fill-rule:evenodd;stroke:#ffe681;stroke-width:5;stroke-linecap:butt;stroke-linejoin:miter;stroke-miterlimit:4;stroke-dasharray:none;stroke-opacity:1"
       d="m 26.376917,1036.0444 c -3.0369,-2.4722 -3.86237,-2.4652 -2.485,-6.2237 1.37737,-3.7586 5.72593,-15.7997 9.985,-19.4906 51.66299,-44.77099 78.477353,-80.25117 90.714283,-125.35706 2.18415,-8.05086 13.67684,-10.05996 17.76107,-13.33751 2.04212,-1.63878 1.05258,-7.89882 1.50975,-11.23412 0,0 6.17824,-1.87883 7.14353,0.27168 2.1286,4.74215 0.99486,13.62644 5.5244,18.75109 4.52954,5.12465 10.79379,19.12274 10.9184,25.19172 1.32639,64.6004 -64.67606,109.7 -119.642863,132.4999 -6.60603,2.7401 -15.66151,3.6233 -21.42857,-1.0714 z"
       id="path7200-0"
       inkscape:connector-curvature="0"
       sodipodi:nodetypes="sssssssssas" />
    <path
       style="fill:#ffffff;fill-rule:evenodd;stroke:none;stroke-width:1px;stroke-linecap:butt;stroke-linejoin:miter;stroke-opacity:1"
       d="M 57.142857,1010.2193 C 84.895418,998.68389 140.45808,926.88282 141.07143,896.64788 142.48656,933.35211 91.695844,1000.023 57.142857,1010.2193 Z"
       id="path7217"
       inkscape:connector-curvature="0"
       sodipodi:nodetypes="ccc" />
  </g>
</svg>
