<?xml version="1.0" encoding="UTF-8" standalone="no"?>
<!-- Created with Inkscape (http://www.inkscape.org/) -->

<svg
   xmlns:dc="http://purl.org/dc/elements/1.1/"
   xmlns:cc="http://creativecommons.org/ns#"
   xmlns:rdf="http://www.w3.org/1999/02/22-rdf-syntax-ns#"
   xmlns:svg="http://www.w3.org/2000/svg"
   xmlns="http://www.w3.org/2000/svg"
   xmlns:sodipodi="http://sodipodi.sourceforge.net/DTD/sodipodi-0.dtd"
   xmlns:inkscape="http://www.inkscape.org/namespaces/inkscape"
   width="200"
   height="200"
   viewBox="0 0 200 200"
   id="svg2"
   version="1.1"
   inkscape:version="0.91 r13725"
   sodipodi:docname="cherry.svg">
  <defs
     id="defs4" />
  <sodipodi:namedview
     id="base"
     pagecolor="#ffffff"
     bordercolor="#666666"
     borderopacity="1.0"
     inkscape:pageopacity="0.0"
     inkscape:pageshadow="2"
     inkscape:zoom="3.959798"
     inkscape:cx="72.0062"
     inkscape:cy="93.933271"
     inkscape:document-units="px"
     inkscape:current-layer="layer1"
     showgrid="false"
     units="px"
     inkscape:window-width="1598"
     inkscape:window-height="898"
     inkscape:window-x="0"
     inkscape:window-y="0"
     inkscape:window-maximized="0" />
  <metadata
     id="metadata7">
    <rdf:RDF>
      <cc:Work
         rdf:about="">
        <dc:format>image/svg+xml</dc:format>
        <dc:type
           rdf:resource="http://purl.org/dc/dcmitype/StillImage" />
        <dc:title></dc:title>
      </cc:Work>
    </rdf:RDF>
  </metadata>
  <g
     inkscape:label="Layer 1"
     inkscape:groupmode="layer"
     id="layer1"
     transform="translate(0,-852.36216)">
    <path
       style="fill:none;fill-rule:evenodd;stroke:#d40000;stroke-width:5;stroke-linecap:butt;stroke-linejoin:miter;stroke-miterlimit:4;stroke-dasharray:none;stroke-opacity:1"
       d="m 63.39068,960.61542 c -10.473123,-19.85382 9.100204,-69.14273 36.96646,-61.11041 -13.000636,10.05737 -10.540234,42.55142 35.34971,69.45469"
       id="path8234"
       inkscape:connector-curvature="0"
       sodipodi:nodetypes="ccc" />
    <g
       transform="matrix(-1.2736918,-0.39139178,0.10436728,-0.8495867,-21.05832,1649.8845)"
       id="g7937">
      <path
         sodipodi:nodetypes="ccsc"
         inkscape:connector-curvature="0"
         id="path4714-5"
         d="m -76.785714,944.50502 c 18.661844,-14.18712 34.318169,-35.71736 46.402002,-54.60306 -3.219502,10.65042 5.212572,29.17126 -11.216814,39.45767 -14.189665,8.88413 -22.475138,9.77766 -35.185188,15.14539 z"
         style="fill:#00ff00;fill-opacity:1;fill-rule:evenodd;stroke:none;stroke-width:1px;stroke-linecap:butt;stroke-linejoin:miter;stroke-opacity:1" />
      <path
         sodipodi:nodetypes="ccsc"
         inkscape:connector-curvature="0"
         id="path4714-6-1"
         d="m -76.852056,944.70346 c 18.661843,-14.18712 34.318168,-35.71736 46.402001,-54.60306 -13.933788,2.79328 -23.026418,1.09514 -30.321415,18.51837 -6.465661,15.44246 -10.513394,25.35982 -16.080586,36.08469 z"
         style="fill:#008000;fill-opacity:1;fill-rule:evenodd;stroke:none;stroke-width:1px;stroke-linecap:butt;stroke-linejoin:miter;stroke-opacity:1" />
    </g>
    <path
       style="opacity:1;fill:#d40000;fill-opacity:1;fill-rule:nonzero;stroke:none;stroke-width:5;stroke-linecap:square;stroke-linejoin:round;stroke-miterlimit:4;stroke-dasharray:none;stroke-opacity:1"
       d="m 100,995.75501 c 2e-5,16.66719 -13.511393,30.17859 -30.178569,30.17859 -16.667176,0 -32.678587,-13.1543 -32.678572,-29.82145 10e-7,-16.66716 14.710351,-39.04562 31.607143,-27.67857 C 84.479798,955.88706 100,979.08785 100,995.75501 Z"
       id="path8188"
       inkscape:connector-curvature="0"
       sodipodi:nodetypes="ssscs" />
    <path
       style="opacity:1;fill:#d40000;fill-opacity:1;fill-rule:nonzero;stroke:none;stroke-width:5;stroke-linecap:square;stroke-linejoin:round;stroke-miterlimit:4;stroke-dasharray:none;stroke-opacity:1"
       d="m 173.57143,1004.5027 c 2e-5,16.6672 -13.86854,32.6786 -30.53572,32.6786 -16.66717,0 -33.39287,-11.3686 -33.39286,-28.0357 0,-16.66717 7.5675,-39.40277 32.67858,-31.96429 15.01551,-15.76081 31.25,10.65427 31.25,27.32139 z"
       id="path8188-4"
       inkscape:connector-curvature="0"
       sodipodi:nodetypes="ssscs" />
    <path
       style="opacity:1;fill:none;fill-opacity:1;fill-rule:nonzero;stroke:#ff3838;stroke-width:5;stroke-linecap:square;stroke-linejoin:round;stroke-miterlimit:4;stroke-dasharray:none;stroke-opacity:1"
       d="m 93.928573,988.16947 c 1e-5,16.66723 -13.5114,30.17863 -30.17857,30.17863 -16.667178,0 -32.678589,-13.1543 -32.678574,-29.82153 1e-6,-16.6671 14.710351,-39.04559 31.607144,-27.67854 15.7298,-12.54652 31.25,10.65424 31.25,27.32144 z"
       id="path8188-9"
       inkscape:connector-curvature="0"
       sodipodi:nodetypes="ssscs" />
    <path
       style="opacity:1;fill:none;fill-opacity:1;fill-rule:nonzero;stroke:#ff3838;stroke-width:5;stroke-linecap:square;stroke-linejoin:round;stroke-miterlimit:4;stroke-dasharray:none;stroke-opacity:1"
       d="m 167.5,996.91717 c 2e-5,16.66723 -13.86854,32.67863 -30.53572,32.67863 -16.66717,0 -33.39287,-11.3686 -33.39286,-28.0357 0,-16.66723 7.5675,-39.40282 32.67858,-31.96433 15.01551,-15.76082 31.25,10.6543 31.25,27.3214 z"
       id="path8188-4-0"
       inkscape:connector-curvature="0"
       sodipodi:nodetypes="ssscs" />
  </g>
</svg>
