<?xml version="1.0" encoding="UTF-8" standalone="no"?>
<!-- Created with Inkscape (http://www.inkscape.org/) -->

<svg
   xmlns:dc="http://purl.org/dc/elements/1.1/"
   xmlns:cc="http://creativecommons.org/ns#"
   xmlns:rdf="http://www.w3.org/1999/02/22-rdf-syntax-ns#"
   xmlns:svg="http://www.w3.org/2000/svg"
   xmlns="http://www.w3.org/2000/svg"
   xmlns:sodipodi="http://sodipodi.sourceforge.net/DTD/sodipodi-0.dtd"
   xmlns:inkscape="http://www.inkscape.org/namespaces/inkscape"
   width="200"
   height="200"
   viewBox="0 0 200 200"
   id="svg2"
   version="1.1"
   inkscape:version="0.91 r13725"
   sodipodi:docname="fig.svg">
  <defs
     id="defs4" />
  <sodipodi:namedview
     id="base"
     pagecolor="#ffffff"
     bordercolor="#666666"
     borderopacity="1.0"
     inkscape:pageopacity="0.0"
     inkscape:pageshadow="2"
     inkscape:zoom="2.8"
     inkscape:cx="31.160436"
     inkscape:cy="89.747241"
     inkscape:document-units="px"
     inkscape:current-layer="layer1"
     showgrid="false"
     units="px"
     inkscape:window-width="1598"
     inkscape:window-height="898"
     inkscape:window-x="0"
     inkscape:window-y="0"
     inkscape:window-maximized="0"
     showguides="false" />
  <metadata
     id="metadata7">
    <rdf:RDF>
      <cc:Work
         rdf:about="">
        <dc:format>image/svg+xml</dc:format>
        <dc:type
           rdf:resource="http://purl.org/dc/dcmitype/StillImage" />
        <dc:title></dc:title>
      </cc:Work>
    </rdf:RDF>
  </metadata>
  <g
     inkscape:label="Layer 1"
     inkscape:groupmode="layer"
     id="layer1"
     transform="translate(0,-852.36216)">
    <path
       style="fill:#441650;fill-rule:evenodd;stroke:none;stroke-width:1px;stroke-linecap:butt;stroke-linejoin:miter;stroke-opacity:1"
       d="m 115.1148,1032.3586 c -33.49835,-2.4379 -85.011302,-25.2609 -81.212177,-60.47748 3.040746,-11.76106 14.845336,-17.84402 24.198486,-24.153 21.000228,-9.35209 48.648101,-39.14593 48.376481,-56.43182 -1.24857,-9.40973 14.23401,1.65499 17.19642,7.08002 15.9565,29.22113 50.75511,36.17096 56.48221,74.5163 0.0483,34.81818 -36.24652,58.27988 -65.04142,59.46598 z"
       id="path14071"
       inkscape:connector-curvature="0"
       sodipodi:nodetypes="ccccscc" />
    <path
       style="fill:#ffffff;fill-opacity:1;fill-rule:evenodd;stroke:none;stroke-width:1px;stroke-linecap:butt;stroke-linejoin:miter;stroke-opacity:1"
       d="m 54.949657,980.53955 c -2.759187,-25.55194 14.140402,-30.5879 35.843063,-36.10354 -17.772277,7.8927 -29.949618,17.19401 -35.843063,36.10354 z"
       id="path14050"
       inkscape:connector-curvature="0"
       sodipodi:nodetypes="ccc" />
    <path
       style="fill:none;fill-rule:evenodd;stroke:#9631b1;stroke-width:5.9601388;stroke-linecap:butt;stroke-linejoin:miter;stroke-miterlimit:4;stroke-dasharray:none;stroke-opacity:1"
       d="m 102.39109,1025.2929 c -33.498346,-2.4379 -85.011294,-25.2608 -81.212168,-60.47741 3.040746,-11.76107 14.845336,-17.84403 24.198487,-24.15301 21.000223,-9.35209 48.648094,-39.14593 48.376474,-56.43182 -1.248569,-9.40973 14.234017,1.65499 17.196417,7.08002 15.9565,29.22113 50.75511,36.17096 56.48221,74.5163 0.0483,34.81822 -36.24653,58.27982 -65.04142,59.46592 z"
       id="path14071-8"
       inkscape:connector-curvature="0"
       sodipodi:nodetypes="ccccscc" />
  </g>
</svg>
