<?xml version="1.0" encoding="UTF-8" standalone="no"?>
<!-- Created with Inkscape (http://www.inkscape.org/) -->

<svg
   xmlns:dc="http://purl.org/dc/elements/1.1/"
   xmlns:cc="http://creativecommons.org/ns#"
   xmlns:rdf="http://www.w3.org/1999/02/22-rdf-syntax-ns#"
   xmlns:svg="http://www.w3.org/2000/svg"
   xmlns="http://www.w3.org/2000/svg"
   xmlns:sodipodi="http://sodipodi.sourceforge.net/DTD/sodipodi-0.dtd"
   xmlns:inkscape="http://www.inkscape.org/namespaces/inkscape"
   width="200"
   height="200"
   viewBox="0 0 200 200"
   id="svg2"
   version="1.1"
   inkscape:version="0.91 r13725"
   sodipodi:docname="jackfruit.svg">
  <defs
     id="defs4" />
  <sodipodi:namedview
     id="base"
     pagecolor="#ffffff"
     bordercolor="#666666"
     borderopacity="1.0"
     inkscape:pageopacity="0.0"
     inkscape:pageshadow="2"
     inkscape:zoom="2.8"
     inkscape:cx="25.830858"
     inkscape:cy="101.96663"
     inkscape:document-units="px"
     inkscape:current-layer="layer1"
     showgrid="false"
     units="px"
     inkscape:window-width="1598"
     inkscape:window-height="898"
     inkscape:window-x="0"
     inkscape:window-y="0"
     inkscape:window-maximized="0" />
  <metadata
     id="metadata7">
    <rdf:RDF>
      <cc:Work
         rdf:about="">
        <dc:format>image/svg+xml</dc:format>
        <dc:type
           rdf:resource="http://purl.org/dc/dcmitype/StillImage" />
        <dc:title></dc:title>
      </cc:Work>
    </rdf:RDF>
  </metadata>
  <g
     inkscape:label="Layer 1"
     inkscape:groupmode="layer"
     id="layer1"
     transform="translate(0,-852.36216)">
    <path
       style="opacity:1;fill:#60aa00;fill-opacity:1;fill-rule:nonzero;stroke:none;stroke-width:5;stroke-linecap:square;stroke-linejoin:round;stroke-miterlimit:4;stroke-dasharray:none;stroke-opacity:1"
       d="m 74.712681,1024.0224 c -3.645167,-2.0068 -5.626191,-12.0058 -8.685071,-14.7286 -3.058828,-2.7228 -9.272903,-2.7566 -11.713077,-6.0731 -2.440192,-3.31654 -1.106533,-9.9156 -2.895081,-13.7033 -1.788647,-3.78738 -2.898575,-4.07416 -4.002696,-8.21004 -1.104354,-4.13622 7.750588,-5.56309 7.363277,-9.92488 -0.38748,-4.36222 -6.553963,-6.28645 -6.191662,-10.75232 0.362427,-4.46509 8.31519,-10.51534 9.460068,-14.96157 1.14492,-4.44655 -1.641022,-11.23651 0.318852,-15.54092 1.95994,-4.30483 8.572939,-5.92035 11.124227,-9.59205 2.551301,-3.67171 -1.364557,-13.51487 1.669754,-16.50935 3.03429,-2.99439 9.487598,1.0445 12.895772,-1.22756 3.407936,-2.2724 -0.873021,-14.07256 2.800101,-15.57825 3.6732,-1.50599 8.532369,-1.21411 12.361606,-1.90818 3.829379,-0.69485 4.940789,-5.73345 8.817579,-5.57228 3.87679,0.16116 9.80206,6.31858 13.61726,7.38018 3.81534,1.06093 8.5935,-4.23209 12.23863,-2.2252 3.64523,2.00639 5.98444,11.21871 9.04325,13.94174 3.05909,2.72309 11.52572,0.55325 13.96586,3.86997 2.44021,3.31633 -1.47409,11.30781 0.64235,15.90613 2.06934,4.4962 9.56835,4.86679 10.6726,9.00308 1.10436,4.1359 -4.46663,11.3286 -4.07927,15.69075 0.38739,4.3618 5.68354,7.28347 5.3213,11.74854 -0.36238,4.46553 -6.3833,10.47483 -7.52811,14.9214 -1.14469,4.44594 1.30794,11.05265 -0.65199,15.35742 -1.95981,4.30413 -8.23957,6.10324 -10.79103,9.77523 -2.55147,3.67202 -1.60389,11.55006 -4.63805,14.54446 -3.03421,2.9946 -10.05003,1.1053 -13.45809,3.3778 -3.40805,2.2725 -4.76981,10.3066 -8.44297,11.8124 -3.67307,1.5059 -9.65755,-3.5165 -13.48688,-2.8218 -3.82934,0.6947 -5.52861,8.0764 -9.40542,7.9152 -3.876739,-0.1612 -9.930814,-7.8653 -13.746298,-8.927 -3.815209,-1.0616 -8.951675,5.0189 -12.596835,3.0122 z"
       id="path5312-8"
       inkscape:connector-curvature="0"
       sodipodi:nodetypes="cssssssssssssssssscasssssssssssssc" />
    <path
       style="fill:#ffffff;fill-opacity:1;fill-rule:evenodd;stroke:none;stroke-width:1px;stroke-linecap:butt;stroke-linejoin:miter;stroke-opacity:1"
       d="m 77.25076,930.13572 c -1.636041,-13.23261 5.596626,-15.18572 15.079223,-17.96174 3.077144,-14.37062 5.847698,-12.22057 18.441437,-15.3392 0,0 -9.9335,-2.22895 -13.596801,0.4438 -4.216511,3.07637 -5.263055,14.74746 -5.263055,14.74746 -5.357142,-0.31805 -11.028227,-1.49245 -14.30366,2.03826 -3.651518,3.9361 -1.219186,10.53068 -1.071433,16.07142 0,0 -8.490574,2.35331 -10.234591,5.88017 -2.724671,5.51001 -3.355469,12.56869 2.405909,18.28299 -3.301451,-7.4237 0.862032,-19.44188 8.542971,-24.16316 z"
       id="path13121"
       inkscape:connector-curvature="0"
       sodipodi:nodetypes="cccacacacc" />
    <path
       style="opacity:1;fill:none;fill-opacity:1;fill-rule:nonzero;stroke:#95ff0b;stroke-width:5;stroke-linecap:square;stroke-linejoin:round;stroke-miterlimit:4;stroke-dasharray:none;stroke-opacity:1"
       d="m 63.813981,1018.3322 c -3.64517,-2.0068 -5.62619,-12.0058 -8.68507,-14.7286 -3.058832,-2.7228 -9.272907,-2.7566 -11.713081,-6.07307 -2.440192,-3.31654 -1.106533,-9.9156 -2.895081,-13.7033 -1.788647,-3.78738 -2.898575,-4.07416 -4.002696,-8.21004 -1.104354,-4.13622 7.750588,-5.56309 7.363277,-9.92488 -0.38748,-4.36222 -6.553963,-6.28645 -6.191662,-10.75232 0.362427,-4.46509 8.31519,-10.51534 9.460068,-14.96157 1.14492,-4.44655 -1.641022,-11.23651 0.318852,-15.54092 1.95994,-4.30483 8.572943,-5.92035 11.124223,-9.59205 2.55131,-3.67171 -1.36455,-13.51487 1.66976,-16.50935 3.03429,-2.99439 9.4876,1.0445 12.89577,-1.22756 3.40794,-2.2724 -0.87302,-14.07256 2.8001,-15.57825 3.6732,-1.50599 8.53237,-1.21411 12.36161,-1.90818 3.82938,-0.69485 4.94079,-5.73345 8.81758,-5.57228 3.876789,0.16116 9.802059,6.31858 13.617259,7.38018 3.81534,1.06093 8.5935,-4.23209 12.23863,-2.2252 3.64523,2.00639 5.98444,11.21871 9.04325,13.94174 3.05909,2.72309 11.52571,0.55325 13.96585,3.86997 2.44021,3.31633 -1.47409,11.30781 0.64235,15.90613 2.06934,4.4962 9.56835,4.86679 10.6726,9.00308 1.10436,4.1359 -4.46663,11.3286 -4.07927,15.69075 0.38739,4.3618 5.68354,7.28347 5.3213,11.74854 -0.36238,4.46553 -6.3833,10.47483 -7.52811,14.9214 -1.14469,4.44594 1.30794,11.05265 -0.65199,15.35742 -1.95981,4.30413 -8.23957,6.10324 -10.79103,9.77523 -2.55147,3.67202 -1.60389,11.55003 -4.63804,14.54443 -3.03421,2.9946 -10.05003,1.1053 -13.45809,3.3778 -3.40805,2.2725 -4.76981,10.3066 -8.44297,11.8124 -3.67307,1.5059 -9.65755,-3.5165 -13.486879,-2.8218 -3.82934,0.6947 -5.52861,8.0764 -9.40542,7.9152 -3.87674,-0.1612 -9.93082,-7.8653 -13.7463,-8.927 -3.81521,-1.0616 -8.95168,5.0189 -12.59684,3.0122 z"
       id="path5312-8-8"
       inkscape:connector-curvature="0"
       sodipodi:nodetypes="cssssssssssssssssscasssssssssssssc" />
  </g>
</svg>
