<?xml version="1.0" encoding="UTF-8" standalone="no"?>
<!-- Created with Inkscape (http://www.inkscape.org/) -->

<svg
   xmlns:dc="http://purl.org/dc/elements/1.1/"
   xmlns:cc="http://creativecommons.org/ns#"
   xmlns:rdf="http://www.w3.org/1999/02/22-rdf-syntax-ns#"
   xmlns:svg="http://www.w3.org/2000/svg"
   xmlns="http://www.w3.org/2000/svg"
   xmlns:sodipodi="http://sodipodi.sourceforge.net/DTD/sodipodi-0.dtd"
   xmlns:inkscape="http://www.inkscape.org/namespaces/inkscape"
   width="200"
   height="200"
   viewBox="0 0 200 200"
   id="svg2"
   version="1.1"
   inkscape:version="0.91 r13725"
   sodipodi:docname="nectarine.svg">
  <defs
     id="defs4" />
  <sodipodi:namedview
     id="base"
     pagecolor="#ffffff"
     bordercolor="#666666"
     borderopacity="1.0"
     inkscape:pageopacity="0.0"
     inkscape:pageshadow="2"
     inkscape:zoom="2.8"
     inkscape:cx="72.718903"
     inkscape:cy="90.833849"
     inkscape:document-units="px"
     inkscape:current-layer="layer1"
     showgrid="false"
     units="px"
     inkscape:window-width="1598"
     inkscape:window-height="898"
     inkscape:window-x="0"
     inkscape:window-y="0"
     inkscape:window-maximized="0" />
  <metadata
     id="metadata7">
    <rdf:RDF>
      <cc:Work
         rdf:about="">
        <dc:format>image/svg+xml</dc:format>
        <dc:type
           rdf:resource="http://purl.org/dc/dcmitype/StillImage" />
        <dc:title></dc:title>
      </cc:Work>
    </rdf:RDF>
  </metadata>
  <g
     inkscape:label="Layer 1"
     inkscape:groupmode="layer"
     id="layer1"
     transform="translate(0,-852.36216)">
    <g
       id="g4731"
       transform="matrix(0.74412032,-0.00635276,0.00635276,0.74412032,154.52364,200.00732)">
      <path
         sodipodi:nodetypes="ccsc"
         inkscape:connector-curvature="0"
         id="path4714"
         d="m -76.785714,944.50502 c 18.661844,-14.18712 36.487595,-28.97145 48.571428,-47.85715 -3.219502,10.65042 2.170723,27.14474 -8.928571,35 -13.665301,9.67129 -26.932807,7.48942 -39.642857,12.85715 z"
         style="fill:#008000;fill-rule:evenodd;stroke:none;stroke-width:1px;stroke-linecap:butt;stroke-linejoin:miter;stroke-opacity:1" />
      <path
         sodipodi:nodetypes="ccsc"
         inkscape:connector-curvature="0"
         id="path4714-6"
         d="m -76.852056,944.70346 c 18.661843,-14.18712 36.487594,-28.97145 48.571427,-47.85715 -13.933788,2.79328 -19.257848,8.21617 -30.357142,16.07143 -13.665301,9.67129 -12.647093,21.06085 -18.214285,31.78572 z"
         style="fill:#00ff00;fill-rule:evenodd;stroke:none;stroke-width:1px;stroke-linecap:butt;stroke-linejoin:miter;stroke-opacity:1" />
    </g>
    <path
       style="fill:#ef6800;fill-opacity:1;fill-rule:evenodd;stroke:none;stroke-width:1px;stroke-linecap:butt;stroke-linejoin:miter;stroke-opacity:1"
       d="m 105.02318,916.60913 c -14.825605,-0.52357 -27.906897,-8.64909 -41.039085,1.91046 -13.132188,10.55956 -25.959898,28.97216 -26.481458,46.92515 -0.67117,23.10281 19.16181,48.34446 30.514555,62.26196 11.352751,13.9175 15.931245,3.8253 31.485439,4.8338 16.639589,1.0789 21.712009,13.9813 35.800649,0.7877 14.08863,-13.1937 34.03544,-39.78635 34.69249,-64.06155 0.72932,-26.94541 -13.67443,-40.47742 -25.9569,-51.76904 -12.28247,-11.29161 -24.40578,-0.37254 -39.01569,-0.88848 z"
       id="path5134"
       inkscape:connector-curvature="0"
       sodipodi:nodetypes="ssassssss" />
    <path
       style="fill:#ffffff;fill-rule:evenodd;stroke:none;stroke-width:1px;stroke-linecap:butt;stroke-linejoin:miter;stroke-opacity:1"
       d="M 59.803112,952.00352 C 62.58939,930.17289 74.684116,926.6904 87.796558,926.00696 71.193554,935.24925 67.31556,939.26992 59.803112,952.00352 Z"
       id="path4712"
       inkscape:connector-curvature="0"
       sodipodi:nodetypes="ccc" />
    <path
       style="fill:none;fill-opacity:1;fill-rule:evenodd;stroke:#ff994a;stroke-width:5;stroke-linecap:butt;stroke-linejoin:miter;stroke-miterlimit:4;stroke-dasharray:none;stroke-opacity:1"
       d="m 95.911831,909.96316 c -14.825604,-0.52357 -27.906896,-8.64909 -41.039084,1.91046 -13.13219,10.55956 -25.9599,28.97216 -26.48146,46.92515 -0.67117,23.10281 19.16181,48.34453 30.51456,62.26203 11.352748,13.9175 15.931242,3.8253 31.485434,4.8338 16.639589,1.0789 21.712009,13.9813 35.800649,0.7877 14.08863,-13.1937 34.03544,-39.78642 34.69249,-64.06162 0.72932,-26.94541 -13.67443,-40.47742 -25.9569,-51.76904 -12.28246,-11.29161 -24.40578,-0.37254 -39.015689,-0.88848 z"
       id="path5134-8"
       inkscape:connector-curvature="0"
       sodipodi:nodetypes="ssassssss" />
  </g>
</svg>
