<?xml version="1.0" encoding="UTF-8" standalone="no"?>
<!-- Created with Inkscape (http://www.inkscape.org/) -->

<svg
   xmlns:dc="http://purl.org/dc/elements/1.1/"
   xmlns:cc="http://creativecommons.org/ns#"
   xmlns:rdf="http://www.w3.org/1999/02/22-rdf-syntax-ns#"
   xmlns:svg="http://www.w3.org/2000/svg"
   xmlns="http://www.w3.org/2000/svg"
   xmlns:sodipodi="http://sodipodi.sourceforge.net/DTD/sodipodi-0.dtd"
   xmlns:inkscape="http://www.inkscape.org/namespaces/inkscape"
   width="200"
   height="200"
   viewBox="0 0 200 200"
   id="svg2"
   version="1.1"
   inkscape:version="0.91 r13725"
   sodipodi:docname="pineapple.svg">
  <defs
     id="defs4">
    <clipPath
       clipPathUnits="userSpaceOnUse"
       id="clipPath18221">
      <path
         sodipodi:nodetypes="ccccccac"
         inkscape:connector-curvature="0"
         id="path18223"
         d="m -74.285714,903.07645 c -19.548234,1.55906 -33.664546,10.22777 -41.785716,20.35714 15.47619,-9.8485 31.666669,-7.10048 47.142859,-7.5 10.998054,8.09312 21.625656,16.317 16.785714,30 5.800846,-8.45238 13.369275,-16.90476 8.214286,-25.35714 12.233134,4.59574 26.555108,3.96937 35.357142,17.14286 2.7606607,-8.16604 -1.2949676,-13.24259 -5.714285,-17.5 -14.979889,-14.43108 -37.930977,-14.38432 -60,-17.14286 z"
         style="fill:#00ff00;fill-opacity:1;fill-rule:evenodd;stroke:none;stroke-width:1px;stroke-linecap:butt;stroke-linejoin:miter;stroke-opacity:1" />
    </clipPath>
    <clipPath
       clipPathUnits="userSpaceOnUse"
       id="clipPath18221-3">
      <path
         sodipodi:nodetypes="ccccccac"
         inkscape:connector-curvature="0"
         id="path18223-1"
         d="m -74.285714,903.07645 c -19.548234,1.55906 -33.664546,10.22777 -41.785716,20.35714 15.47619,-9.8485 31.666669,-7.10048 47.142859,-7.5 10.998054,8.09312 21.625656,16.317 16.785714,30 5.800846,-8.45238 13.369275,-16.90476 8.214286,-25.35714 12.233134,4.59574 26.555108,3.96937 35.357142,17.14286 2.7606607,-8.16604 -1.2949676,-13.24259 -5.714285,-17.5 -14.979889,-14.43108 -37.930977,-14.38432 -60,-17.14286 z"
         style="fill:#00ff00;fill-opacity:1;fill-rule:evenodd;stroke:none;stroke-width:1px;stroke-linecap:butt;stroke-linejoin:miter;stroke-opacity:1" />
    </clipPath>
    <clipPath
       clipPathUnits="userSpaceOnUse"
       id="clipPath18950">
      <path
         sodipodi:nodetypes="ccccccccsccccccccc"
         inkscape:connector-curvature="0"
         id="path18952"
         d="M 91.068346,946.43589 C 73.851604,938.78139 59.573135,929.89284 54.552545,917.116 c 7.875958,0.62039 17.759305,9.57611 25.635263,3.29186 -20.58726,-6.2218 -15.445483,-18.50549 -24.40784,-27.77881 7.671387,2.77625 17.842775,6.9554 25.514162,3.93626 -15.442348,-5.04917 -24.01421,-15.73212 -31.651273,-24.87904 11.828403,4.45335 20.889303,11.32825 37.129516,11.92128 -3.355902,-9.08252 -14.777299,-15.1405 -7.978243,-28.03111 -2.187037,6.88914 19.651966,21.3133 23.93473,20.94279 6.70454,-0.58004 27.02151,-11.17832 26.08272,-11.27689 1.45307,7.65917 -2.50966,12.20457 -6.75082,19.0096 l 26.38957,-1.28879 c -4.2897,11.3293 -12.32064,14.23021 -24.9764,20.76806 l 32.95465,-3.69164 c -8.56924,8.06685 -13.80504,17.88373 -33.1404,20.29839 l 27.31014,2.25538 c -8.9229,16.47412 -13.1504,18.72388 -31.60612,23.52035 z"
         style="fill:#00ff00;fill-opacity:1;fill-rule:evenodd;stroke:none;stroke-width:1px;stroke-linecap:butt;stroke-linejoin:miter;stroke-opacity:1" />
    </clipPath>
  </defs>
  <sodipodi:namedview
     id="base"
     pagecolor="#ffffff"
     bordercolor="#666666"
     borderopacity="1.0"
     inkscape:pageopacity="0.0"
     inkscape:pageshadow="2"
     inkscape:zoom="2.8"
     inkscape:cx="111.32181"
     inkscape:cy="92.846377"
     inkscape:document-units="px"
     inkscape:current-layer="layer1"
     showgrid="false"
     units="px"
     inkscape:window-width="1598"
     inkscape:window-height="898"
     inkscape:window-x="0"
     inkscape:window-y="0"
     inkscape:window-maximized="0" />
  <metadata
     id="metadata7">
    <rdf:RDF>
      <cc:Work
         rdf:about="">
        <dc:format>image/svg+xml</dc:format>
        <dc:type
           rdf:resource="http://purl.org/dc/dcmitype/StillImage" />
        <dc:title></dc:title>
      </cc:Work>
    </rdf:RDF>
  </metadata>
  <g
     inkscape:label="Layer 1"
     inkscape:groupmode="layer"
     id="layer1"
     transform="translate(0,-852.36216)">
    <path
       style="fill:#00ff00;fill-opacity:1;fill-rule:evenodd;stroke:none;stroke-width:1px;stroke-linecap:butt;stroke-linejoin:miter;stroke-opacity:1"
       d="m 88.925489,944.29303 c -17.216742,-7.6545 -31.495211,-16.54305 -36.515801,-29.31989 7.875958,0.62039 17.759305,9.57611 25.635263,3.29186 -20.58726,-6.2218 -15.445483,-18.50549 -24.40784,-27.77881 7.671387,2.77625 17.842775,6.9554 25.514162,3.93626 C 63.708925,889.37328 55.137063,878.69033 47.5,869.54341 c 11.828403,4.45335 20.889303,11.32825 37.129516,11.92128 -3.355902,-9.08252 -14.777299,-15.1405 -7.978243,-28.03111 -2.187037,6.88914 19.651966,21.3133 23.934727,20.94279 6.70454,-0.58004 27.02151,-11.17832 26.08272,-11.27689 1.45307,7.65917 -2.50966,12.20457 -6.75082,19.0096 l 26.38957,-1.28879 c -4.2897,11.3293 -12.32064,14.23021 -24.9764,20.76806 l 32.95465,-3.69164 c -8.56924,8.06685 -13.80504,17.88373 -33.1404,20.29839 l 27.31014,2.25538 c -8.9229,16.47412 -13.1504,18.72388 -31.60612,23.52035 z"
       id="path18264"
       inkscape:connector-curvature="0"
       sodipodi:nodetypes="ccccccccsccccccccc" />
    <g
       id="g18931"
       clip-path="url(#clipPath18950)"
       transform="translate(-2.1428571,-2.1428571)">
      <g
         id="g18903">
        <path
           style="fill:#008000;fill-opacity:1;fill-rule:evenodd;stroke:none;stroke-width:1px;stroke-linecap:butt;stroke-linejoin:miter;stroke-opacity:1"
           d="m 66.023745,944.47591 c 25.874989,-3.9643 66.089075,-7.91348 86.267045,-23.27184 l -10.01858,21.6056 c -23.82918,15.80618 -53.049459,4.42748 -76.248465,1.66624 z"
           id="path18895"
           inkscape:connector-curvature="0"
           sodipodi:nodetypes="cccc" />
        <path
           style="fill:#008000;fill-opacity:1;fill-rule:evenodd;stroke:none;stroke-width:1px;stroke-linecap:butt;stroke-linejoin:miter;stroke-opacity:1"
           d="m 138.59373,918.4732 c -12.39926,2.88745 -23.98062,2.50331 -35.37944,1.38896 26.71478,-3.28522 43.83576,-13.76513 61.84327,-25.75761 L 155,917.36216 c -9.7619,3.14684 -6.64437,1.61034 -16.40627,1.11104 z"
           id="path18897"
           inkscape:connector-curvature="0"
           sodipodi:nodetypes="ccccc" />
        <path
           style="fill:#008000;fill-opacity:1;fill-rule:evenodd;stroke:none;stroke-width:1px;stroke-linecap:butt;stroke-linejoin:miter;stroke-opacity:1"
           d="m 128.92857,901.64787 c -7.96441,3.5466 -16.36611,3.59495 -24.64286,4.64286 16.86156,-11.18818 37.28587,-14.22633 51.11476,-30.26677 1.60699,16.30922 -6.70999,10.62391 -9.68618,17.76677 z"
           id="path18899"
           inkscape:connector-curvature="0"
           sodipodi:nodetypes="ccccc" />
        <path
           style="fill:#008000;fill-opacity:1;fill-rule:evenodd;stroke:none;stroke-width:1px;stroke-linecap:butt;stroke-linejoin:miter;stroke-opacity:1"
           d="m 128.7664,879.49758 c -8.86744,5.96193 -19.71217,9.94658 -30.909257,13.57887 18.923937,-11.59547 24.330257,-17.82414 34.285717,-31.78572 z"
           id="path18901"
           inkscape:connector-curvature="0"
           sodipodi:nodetypes="cccc" />
      </g>
      <path
         sodipodi:nodetypes="cccc"
         inkscape:connector-curvature="0"
         id="path18923"
         d="m 51.428571,915.2193 c 17.582636,13.37158 39.501027,24.86757 52.499999,23.57143 l -50.714284,9.82143 z"
         style="fill:#008000;fill-opacity:1;fill-rule:evenodd;stroke:none;stroke-width:1px;stroke-linecap:butt;stroke-linejoin:miter;stroke-opacity:1" />
      <path
         sodipodi:nodetypes="cccc"
         inkscape:connector-curvature="0"
         id="path18925"
         d="m 54.464286,890.75502 c 12.52308,12.40191 24.214301,29.41065 40.357143,26.42857 -5.571303,2.68892 -11.336029,4.08535 -20.178572,3.03571 -22.564141,-9.43513 -14.96537,-19.60595 -20.178571,-29.46428 z"
         style="fill:#008000;fill-opacity:1;fill-rule:evenodd;stroke:none;stroke-width:1px;stroke-linecap:butt;stroke-linejoin:miter;stroke-opacity:1" />
      <path
         sodipodi:nodetypes="cccc"
         inkscape:connector-curvature="0"
         id="path18927"
         d="m 89.464286,894.68359 c -4.281486,2.25592 -6.991472,1.31908 -10.892857,2.32143 -12.758324,-4.3411 -33.518713,-12.86304 -29.642858,-26.42857 16.37212,16.62897 33.425241,22.80405 40.535715,24.10714 z"
         style="fill:#008000;fill-opacity:1;fill-rule:evenodd;stroke:none;stroke-width:1px;stroke-linecap:butt;stroke-linejoin:miter;stroke-opacity:1" />
      <path
         sodipodi:nodetypes="cccc"
         inkscape:connector-curvature="0"
         id="path18929"
         d="m 78.214286,854.32645 c -0.728787,19.66219 9.930438,24.49751 18.75,31.42856 -6.81921,2.29903 -15.193143,-4.73028 -22.857143,-7.49999 -2.698208,-8.65407 -6.967955,-17.57006 4.107143,-23.92857 z"
         style="fill:#008000;fill-opacity:1;fill-rule:evenodd;stroke:none;stroke-width:1px;stroke-linecap:butt;stroke-linejoin:miter;stroke-opacity:1" />
    </g>
    <path
       style="opacity:1;fill:#ffdd55;fill-opacity:1;fill-rule:nonzero;stroke:none;stroke-width:4.31827641;stroke-linecap:square;stroke-linejoin:round;stroke-miterlimit:4;stroke-dasharray:none;stroke-opacity:1"
       d="m 129.18478,1030.2694 c -2.56031,8.2921 -9.05253,9.1663 -15.60056,9.1591 -5.18861,4.4821 -10.88228,5.7816 -17.024551,1.8701 -8.187243,2.0557 -12.817664,-0.6997 -16.426436,-5.2167 -5.429929,-1.9217 -10.578241,-1.5538 -13.806164,-12.1012 -6.200642,-4.5654 -8.467923,-11.9523 -8.412577,-19.4643 -3.016295,-5.73756 -6.311397,-14.51759 -1.717625,-23.98985 -2.185126,-8.98803 -0.886616,-17.1479 4.791506,-23.33871 2.531187,-6.80932 1.177365,-15.39209 11.114815,-17.51071 4.738177,-8.81862 10.050706,-8.33842 15.600568,-9.15911 5.75938,-4.27616 11.337067,-4.01916 17.024554,-1.87005 8.25775,-4.82847 11.64932,1.53376 16.42643,5.2167 7.99099,-0.68067 10.94044,5.58809 13.80616,12.10117 6.60077,2.76455 9.79648,9.17861 8.41257,19.46434 5.2109,7.11782 6.06949,15.3675 1.71764,23.98994 4.02552,11.75728 -0.41685,17.59198 -4.7915,23.33858 0.11792,8.555 -4.26566,14.3287 -11.11483,17.5107 z"
       id="path18261"
       inkscape:connector-curvature="0"
       sodipodi:nodetypes="ccccccccccccccccc" />
    <path
       style="opacity:1;fill:none;fill-opacity:1;fill-rule:nonzero;stroke:#fff0b4;stroke-width:4.31827641;stroke-linecap:square;stroke-linejoin:round;stroke-miterlimit:4;stroke-dasharray:none;stroke-opacity:1"
       d="m 120.06813,1024.5099 c -2.56031,8.2921 -9.05253,9.1663 -15.60056,9.1591 -5.188607,4.4821 -10.88228,5.7816 -17.02455,1.8701 -8.18724,2.0557 -12.81766,-0.6997 -16.42644,-5.2167 -5.42993,-1.9217 -10.57824,-1.5538 -13.80616,-12.1012 -6.20064,-4.5654 -8.46792,-11.9523 -8.41258,-19.46426 -3.01629,-5.73753 -6.31139,-14.5176 -1.71762,-23.98986 -2.18513,-8.98803 -0.88662,-17.1479 4.7915,-23.33871 2.53119,-6.80932 1.17737,-15.39209 11.11482,-17.51071 4.73818,-8.81862 10.0507,-8.33842 15.60057,-9.15911 5.75938,-4.27616 11.33706,-4.01916 17.02455,-1.87005 8.25775,-4.82847 11.64932,1.53376 16.42643,5.2167 7.99099,-0.68067 10.94044,5.58809 13.80616,12.10117 6.60077,2.76455 9.79648,9.17861 8.41257,19.46434 5.2109,7.11782 6.06949,15.3675 1.71764,23.98994 4.02552,11.75736 -0.41685,17.59195 -4.7915,23.33855 0.11792,8.555 -4.26566,14.3287 -11.11483,17.5107 z"
       id="path18261-6"
       inkscape:connector-curvature="0"
       sodipodi:nodetypes="ccccccccccccccccc" />
    <path
       style="fill:#ffffff;fill-opacity:1;fill-rule:evenodd;stroke:none;stroke-width:1px;stroke-linecap:butt;stroke-linejoin:miter;stroke-opacity:1"
       d="m 74.171554,962.1039 c -1.276931,-11.0433 4.368173,-12.67328 11.76934,-14.99001 6.172964,-7.99971 13.164259,-9.80472 21.362306,-8.92665 0,0 -10.712015,-4.09478 -15.351061,-1.71601 -3.517342,1.80359 -6.337822,10.5192 -6.337822,10.5192 -4.181251,-0.26543 -8.607532,-1.24553 -11.164015,1.70103 -2.850006,3.28488 -0.951571,8.7884 -0.836252,13.41244 0,0 -6.872816,0.63188 -8.266852,3.41704 -2.568956,5.13252 -0.946443,12.27757 3.55031,17.04644 -2.576784,-6.19545 -0.720933,-16.52332 5.274046,-20.46348 z"
       id="path13121"
       inkscape:connector-curvature="0"
       sodipodi:nodetypes="cccacacacc" />
  </g>
</svg>
