<?xml version="1.0" encoding="UTF-8" standalone="no"?>
<!-- Created with Inkscape (http://www.inkscape.org/) -->

<svg
   xmlns:dc="http://purl.org/dc/elements/1.1/"
   xmlns:cc="http://creativecommons.org/ns#"
   xmlns:rdf="http://www.w3.org/1999/02/22-rdf-syntax-ns#"
   xmlns:svg="http://www.w3.org/2000/svg"
   xmlns="http://www.w3.org/2000/svg"
   xmlns:sodipodi="http://sodipodi.sourceforge.net/DTD/sodipodi-0.dtd"
   xmlns:inkscape="http://www.inkscape.org/namespaces/inkscape"
   width="200"
   height="200"
   viewBox="0 0 200 200"
   id="svg2"
   version="1.1"
   inkscape:version="0.91 r13725"
   sodipodi:docname="pomelo.svg">
  <defs
     id="defs4" />
  <sodipodi:namedview
     id="base"
     pagecolor="#ffffff"
     bordercolor="#666666"
     borderopacity="1.0"
     inkscape:pageopacity="0.0"
     inkscape:pageshadow="2"
     inkscape:zoom="2.8"
     inkscape:cx="70.335051"
     inkscape:cy="90.833849"
     inkscape:document-units="px"
     inkscape:current-layer="layer1"
     showgrid="false"
     units="px"
     inkscape:window-width="1598"
     inkscape:window-height="898"
     inkscape:window-x="0"
     inkscape:window-y="0"
     inkscape:window-maximized="0" />
  <metadata
     id="metadata7">
    <rdf:RDF>
      <cc:Work
         rdf:about="">
        <dc:format>image/svg+xml</dc:format>
        <dc:type
           rdf:resource="http://purl.org/dc/dcmitype/StillImage" />
        <dc:title></dc:title>
      </cc:Work>
    </rdf:RDF>
  </metadata>
  <g
     inkscape:label="Layer 1"
     inkscape:groupmode="layer"
     id="layer1"
     transform="translate(0,-852.36216)">
    <g
       id="g4731"
       transform="matrix(0.7241104,0.17152124,-0.17152124,0.7241104,325.09387,223.48853)">
      <path
         sodipodi:nodetypes="ccsc"
         inkscape:connector-curvature="0"
         id="path4714"
         d="m -76.785714,944.50502 c 18.661844,-14.18712 36.487595,-28.97145 48.571428,-47.85715 -3.219502,10.65042 2.170723,27.14474 -8.928571,35 -13.665301,9.67129 -26.932807,7.48942 -39.642857,12.85715 z"
         style="fill:#008000;fill-rule:evenodd;stroke:none;stroke-width:1px;stroke-linecap:butt;stroke-linejoin:miter;stroke-opacity:1" />
      <path
         sodipodi:nodetypes="ccsc"
         inkscape:connector-curvature="0"
         id="path4714-6"
         d="m -76.852056,944.70346 c 18.661843,-14.18712 36.487594,-28.97145 48.571427,-47.85715 -13.933788,2.79328 -19.257848,8.21617 -30.357142,16.07143 -13.665301,9.67129 -12.647093,21.06085 -18.214285,31.78572 z"
         style="fill:#00ff00;fill-rule:evenodd;stroke:none;stroke-width:1px;stroke-linecap:butt;stroke-linejoin:miter;stroke-opacity:1" />
    </g>
    <path
       style="fill:#58a700;fill-opacity:1;fill-rule:evenodd;stroke:none;stroke-width:1px;stroke-linecap:butt;stroke-linejoin:miter;stroke-opacity:1"
       d="m 39.295881,991.10764 c 2.351104,-33.76076 31.67178,-82.05145 67.026369,-82.20208 33.22969,-0.14158 59.84073,39.76375 63.65396,76.72201 2.78543,26.99673 -32.36387,53.76063 -59.43847,55.64453 -28.973726,2.0161 -73.259574,-21.1908 -71.241859,-50.16446 z"
       id="path5170"
       inkscape:connector-curvature="0"
       sodipodi:nodetypes="sasas" />
    <path
       style="fill:#ffffff;fill-rule:evenodd;stroke:none;stroke-width:1px;stroke-linecap:butt;stroke-linejoin:miter;stroke-opacity:1"
       d="m 71.945969,949.50352 c 2.786278,-21.83063 14.881004,-25.31312 27.99345,-25.99656 -16.603008,9.24229 -20.481002,13.26296 -27.99345,25.99656 z"
       id="path4712"
       inkscape:connector-curvature="0"
       sodipodi:nodetypes="ccc" />
    <path
       style="fill:none;fill-opacity:1;fill-rule:evenodd;stroke:#80f300;stroke-width:5;stroke-linecap:butt;stroke-linejoin:miter;stroke-miterlimit:4;stroke-dasharray:none;stroke-opacity:1"
       d="m 31.400976,981.17727 c 2.35111,-33.76076 31.671778,-82.05145 67.026363,-82.20208 33.229691,-0.14158 59.840731,39.76375 63.653961,76.72201 2.78543,26.9967 -32.36387,53.7606 -59.43847,55.6445 -28.973723,2.0161 -73.259564,-21.1908 -71.241854,-50.16443 z"
       id="path5170-1"
       inkscape:connector-curvature="0"
       sodipodi:nodetypes="sasas" />
  </g>
</svg>
