<?xml version="1.0" encoding="UTF-8" standalone="no"?>
<!-- Created with Inkscape (http://www.inkscape.org/) -->

<svg
   xmlns:dc="http://purl.org/dc/elements/1.1/"
   xmlns:cc="http://creativecommons.org/ns#"
   xmlns:rdf="http://www.w3.org/1999/02/22-rdf-syntax-ns#"
   xmlns:svg="http://www.w3.org/2000/svg"
   xmlns="http://www.w3.org/2000/svg"
   xmlns:sodipodi="http://sodipodi.sourceforge.net/DTD/sodipodi-0.dtd"
   xmlns:inkscape="http://www.inkscape.org/namespaces/inkscape"
   width="200"
   height="200"
   viewBox="0 0 200 200"
   id="svg2"
   version="1.1"
   inkscape:version="0.91 r13725"
   sodipodi:docname="rambutan.svg">
  <defs
     id="defs4" />
  <sodipodi:namedview
     id="base"
     pagecolor="#ffffff"
     bordercolor="#666666"
     borderopacity="1.0"
     inkscape:pageopacity="0.0"
     inkscape:pageshadow="2"
     inkscape:zoom="2.8"
     inkscape:cx="79.858091"
     inkscape:cy="112.06816"
     inkscape:document-units="px"
     inkscape:current-layer="layer1"
     showgrid="false"
     units="px"
     inkscape:window-width="1598"
     inkscape:window-height="898"
     inkscape:window-x="0"
     inkscape:window-y="0"
     inkscape:window-maximized="0" />
  <metadata
     id="metadata7">
    <rdf:RDF>
      <cc:Work
         rdf:about="">
        <dc:format>image/svg+xml</dc:format>
        <dc:type
           rdf:resource="http://purl.org/dc/dcmitype/StillImage" />
        <dc:title></dc:title>
      </cc:Work>
    </rdf:RDF>
  </metadata>
  <g
     inkscape:label="Layer 1"
     inkscape:groupmode="layer"
     id="layer1"
     transform="translate(0,-852.36216)">
    <path
       style="opacity:1;fill:#aa0000;fill-opacity:1;fill-rule:nonzero;stroke:none;stroke-width:5;stroke-linecap:square;stroke-linejoin:round;stroke-miterlimit:4;stroke-dasharray:none;stroke-opacity:1"
       d="m 175.80885,957.2733 c 0,3.11685 -25.69893,6.77841 -26.30035,9.71746 -0.60142,2.93904 14.24837,20.89238 13.10604,23.59313 -1.14232,2.70072 -18.27673,-9.85114 -19.89943,-7.44923 -1.62269,2.40192 11.79445,19.73734 9.75189,21.77994 -2.04256,2.0425 -19.54483,-11.2078 -21.94673,-9.58508 -2.40191,1.6227 8.51861,18.92398 5.81787,20.06628 -2.70074,1.1423 -19.02273,-13.8743 -21.96178,-13.2729 -2.93905,0.6014 -5.98212,18.7168 -9.09897,18.7168 -3.11684,0 -6.159915,-18.1154 -9.098962,-18.7168 -2.93905,-0.6014 -14.260933,20.5057 -16.96167,19.3634 -2.700737,-1.1424 3.219673,-24.53408 0.817765,-26.15678 -2.401907,-1.62272 -17.507772,9.96768 -19.550333,7.92508 -2.04256,-2.0425 8.978181,-17.71802 7.355483,-20.11994 -1.622696,-2.40191 -22.097265,3.40053 -23.23958,0.6998 -1.142315,-2.70074 17.047621,-13.90466 16.446214,-16.8437 -0.601417,-2.93905 -21.703008,-6.16919 -21.703008,-9.28604 0,-3.11685 21.101591,-5.97285 21.703008,-8.91189 0.601416,-2.93905 -20.269722,-18.5246 -19.127405,-21.22535 1.142315,-2.70072 19.884969,11.49175 25.92078,5.08144 4.95132,-5.25854 -7.48191,-18.93179 -5.439347,-20.97435 2.04256,-2.04256 15.232288,10.40221 17.634197,8.77949 2.401906,-1.62269 -4.442018,-18.23634 -1.741281,-19.37867 2.700738,-1.14232 14.946136,13.18672 17.885186,12.58531 2.939047,-0.60141 5.982123,-17.22365 9.098963,-17.22365 3.11685,0 6.15992,16.62224 9.09897,17.22365 2.93905,0.60141 14.04523,-16.59592 16.74597,-15.4536 2.70074,1.14233 -3.00397,20.62427 -0.60207,22.24696 2.40191,1.62272 20.37605,-9.61376 22.41861,-7.57116 2.04257,2.04257 -11.84645,17.36411 -10.22376,19.76602 1.6227,2.40191 20.93781,-2.7618 22.08013,-0.0611 1.14231,2.70074 -15.88817,13.26594 -15.28675,16.20498 0.60142,2.93905 26.30034,5.36363 26.30035,8.48048 z"
       id="path5312"
       inkscape:connector-curvature="0"
       sodipodi:nodetypes="sssssssssssssssssscassssssssssssss" />
    <path
       style="opacity:1;fill:none;fill-opacity:1;fill-rule:nonzero;stroke:#fa0000;stroke-width:5;stroke-linecap:square;stroke-linejoin:round;stroke-miterlimit:4;stroke-dasharray:none;stroke-opacity:1"
       d="m 168.63876,950.41528 c 0,3.11685 -25.69893,6.77841 -26.30035,9.71745 -0.60142,2.93905 14.24837,20.89238 13.10604,23.59313 -1.14232,2.70073 -18.27673,-9.85113 -19.89943,-7.44922 -1.62269,2.40191 11.79445,19.73733 9.75189,21.77989 -2.04256,2.04257 -19.54483,-11.20775 -21.94674,-9.58503 -2.4019,1.62269 8.51862,18.924 5.81788,20.0663 -2.70074,1.1423 -19.02273,-13.87436 -21.96178,-13.27294 -2.93905,0.60141 -5.98213,18.71684 -9.09897,18.71684 -3.116844,0 -6.159918,-18.11543 -9.098966,-18.71684 -2.93905,-0.60142 -14.260933,20.50574 -16.96167,19.36344 -2.700737,-1.1423 3.219674,-24.53411 0.817765,-26.1568 -2.401907,-1.62272 -17.507772,9.96763 -19.550332,7.92507 -2.04256,-2.04256 8.97818,-17.71802 7.355482,-20.11993 -1.622695,-2.40191 -22.097265,3.40053 -23.23958,0.6998 -1.142315,-2.70075 17.047622,-13.90466 16.446214,-16.84371 -0.601417,-2.93904 -21.703007,-6.16919 -21.703007,-9.28604 0,-3.11684 21.10159,-5.97284 21.703007,-8.91189 0.601417,-2.93904 -20.269722,-18.52459 -19.127405,-21.22534 1.142316,-2.70073 19.88497,11.49174 25.92078,5.08144 4.951321,-5.25855 -7.481909,-18.93179 -5.439347,-20.97435 2.04256,-2.04257 15.232288,10.40221 17.634197,8.77949 2.401907,-1.6227 -4.442017,-18.23634 -1.74128,-19.37868 2.700737,-1.14231 14.946135,13.18673 17.885185,12.58532 2.939048,-0.60142 5.982122,-17.22366 9.098966,-17.22366 3.116841,0 6.159921,16.62224 9.098971,17.22366 2.93905,0.60141 14.04523,-16.59592 16.74597,-15.45361 2.70073,1.14234 -3.00397,20.62427 -0.60207,22.24697 2.40191,1.62272 20.37605,-9.61377 22.41861,-7.57116 2.04257,2.04256 -11.84645,17.3641 -10.22376,19.76602 1.6227,2.40191 20.93781,-2.76181 22.08013,-0.0611 1.14231,2.70075 -15.88817,13.26594 -15.28675,16.20499 0.60142,2.93904 26.30034,5.36363 26.30035,8.48047 z"
       id="path5312-8"
       inkscape:connector-curvature="0"
       sodipodi:nodetypes="sssssssssssssssssscassssssssssssss" />
    <path
       style="color:#000000;font-style:normal;font-variant:normal;font-weight:normal;font-stretch:normal;font-size:medium;line-height:normal;font-family:sans-serif;text-indent:0;text-align:start;text-decoration:none;text-decoration-line:none;text-decoration-style:solid;text-decoration-color:#000000;letter-spacing:normal;word-spacing:normal;text-transform:none;direction:ltr;block-progression:tb;writing-mode:lr-tb;baseline-shift:baseline;text-anchor:start;white-space:normal;clip-rule:nonzero;display:inline;overflow:visible;visibility:visible;opacity:1;isolation:auto;mix-blend-mode:normal;color-interpolation:sRGB;color-interpolation-filters:linearRGB;solid-color:#000000;solid-opacity:1;fill:#ffffff;fill-opacity:1;fill-rule:evenodd;stroke:none;stroke-width:3.0999999;stroke-linecap:square;stroke-linejoin:miter;stroke-miterlimit:4;stroke-dasharray:none;stroke-dashoffset:0;stroke-opacity:1;color-rendering:auto;image-rendering:auto;shape-rendering:auto;text-rendering:auto;enable-background:accumulate"
       d="m 87.824893,923.60952 c 1.138428,5.32422 3.201997,10.47459 7.380426,14.62197 -5.607488,-3.16605 -13.698174,-9.10054 -19.277285,-12.82229 -0.170053,5.13887 13.482682,21.81808 15.669192,26.78862 -5.404297,-2.63418 -14.596666,-7.06182 -20.000963,-5.61679 3.096348,6.82716 5.101806,14.28694 12.257327,21.11377 -4.135881,-7.76622 -5.785282,-11.48042 -6.514852,-16.77124 l 15.699904,2.63438 -8.957936,-19.01399 c 4.196498,2.60511 7.696749,4.31171 12.161245,5.15109 -2.745395,-7.82406 -2.02267,-7.49331 -2.109294,-10.61653 3.773718,0.47427 7.547433,2.3966 11.321153,6.23654 l 3.94852,3.1205 c -1.29098,-7.44939 -20.418388,-15.73059 -21.577437,-14.82603 z"
       id="path20296"
       inkscape:connector-curvature="0"
       sodipodi:nodetypes="cccccccccccccc" />
  </g>
</svg>
